<?xml version="1.0" encoding="utf-8"?>
<!-- Generator: Adobe Illustrator 20.1.0, SVG Export Plug-In . SVG Version: 6.00 Build 0)  -->
<svg version="1.1" xmlns="http://www.w3.org/2000/svg" xmlns:xlink="http://www.w3.org/1999/xlink" x="0px" y="0px"
	 viewBox="0 0 155.9 155.9" style="enable-background:new 0 0 155.9 155.9;" xml:space="preserve">
<style type="text/css">
	.st0{fill-rule:evenodd;clip-rule:evenodd;fill:#58646D;}
	.st1{fill:#9C9C9C;}
	.st2{fill-rule:evenodd;clip-rule:evenodd;fill:#9C9C9C;}
	.st3{fill-rule:evenodd;clip-rule:evenodd;fill:none;}
	.st4{fill:#BCD023;}
	.st5{font-family:'Avenir-Black';}
	.st6{font-size:17.3288px;}
</style>
<g id="Layer_1">
	<path class="st0" d="M147.6,20c0-7.2-5.8-13-13-13H20.1c-7.2,0-13,5.8-13,13v114.5c0,7.2,5.8,13,13,13h114.5c7.2,0,13-5.8,13-13V20
		z"/>
	<g id="JU7XjV.tif">
		<g>
			<path class="st1" d="M37.7,37.4c16.6,0,33.2,0,49.8,0c2.7,1.4,3.5,3.7,3.5,6.6c-0.1,14.6,0,29.2,0,43.8c0,2.9-0.3,3.3-3.2,3.3
				c-16.8,0-33.6,0-50.5,0c-2.8,0-3.1-0.3-3.1-3.1c0-14.7,0.1-29.5,0-44.2C34.1,40.8,35,38.7,37.7,37.4z"/>
			<path class="st2" d="M30.3,96.3c0.8-0.2,1.6-0.7,2.4-0.7c6.7-0.1,13.4,0,20.1,0c0.2,0,0.4,0.1,0.4,0.1c-1.4,2.6-2.7,5.1-4.2,8
				c-5.4,0-11.2,0-17.1,0c-0.6,0-1.1-0.5-1.7-0.8C30.3,100.7,30.3,98.5,30.3,96.3z"/>
			<path class="st2" d="M71.6,95.6c7.8,0,15.7,0,23.8,0c0-1,0-1.8,0-2.6c0-13.7,0-27.4,0-41.1c0-3.7,1-4.6,4.6-4.7
				c4.2,0,8.4,0,12.6,0c5.2-0.1,9.2,2,12.1,6.3c2.9,4.4,5.9,8.7,8.8,13.1c1.8,2.7,2.5,5.6,2.5,8.8c0,5.8,0,11.7,0,17.5
				c0,0.8,0,1.6,0,2.4c0.5,0.1,0.8,0.1,1.2,0.2c1.3,0.3,3.7,0.4,3.8,1c0.5,1.9,0.3,4.1,0.1,6.2c0,0.3-1.1,0.8-1.8,0.9
				c-3.8,0.1-7.5,0.1-11.3,0c-0.5,0-1.2-0.5-1.4-1c-2.6-6.8-7.1-10.4-12.9-10.1c-6.3,0.3-10.6,4-12.6,11.1c-0.9,0-1.9,0-2.9,0
				c-7.1,0-14.1,0-21.2,0c-1.2,0-1.7-0.3-2.1-1.5C74,99.9,72.7,97.9,71.6,95.6z M114,69.9c3,0,5.9,0.1,8.9,0c0.8,0,1.9-0.3,2.2-0.9
				c0.3-0.5-0.1-1.7-0.5-2.3c-2.1-3.2-4.3-6.3-6.6-9.4c-0.5-0.7-1.6-1.3-2.4-1.4c-3.6-0.1-7.2,0-10.8-0.1c-1.5,0-2.1,0.6-2.1,2.1
				c0,3.2,0.1,6.3,0,9.5c0,1.8,0.8,2.4,2.5,2.4C108.1,69.9,111,69.9,114,69.9z"/>
			<path class="st2" d="M113.9,115.4c-5.3,0-9.8-4.5-9.8-9.8c-0.1-5.3,4.6-10,9.9-10c5.4,0,9.9,4.6,9.9,9.9
				C123.8,111,119.3,115.4,113.9,115.4z M114,110.3c2.7,0,4.7-2.1,4.7-4.9c0-2.7-2.3-4.8-4.9-4.8c-2.6,0.1-4.8,2.4-4.7,4.9
				C109.2,108.2,111.4,110.3,114,110.3z"/>
			<path class="st2" d="M72.3,105.6c0,5.4-4.5,9.8-10,9.8c-5.3,0-9.7-4.5-9.8-9.8c-0.1-5.3,4.6-10,9.9-10
				C67.8,95.6,72.3,100.2,72.3,105.6z M67.2,105.6c0-2.7-2.1-4.9-4.7-4.9c-2.5,0-4.8,2.2-4.9,4.8c0,2.6,2.1,4.8,4.8,4.8
				C65.1,110.3,67.2,108.3,67.2,105.6z"/>
		</g>
	</g>
	<rect x="58.7" y="45.1" class="st3" width="25.7" height="17.6"/>
	<text transform="matrix(1 0 0 1 58.6997 58.1606)" class="st4 st5 st6">DT</text>
</g>
<g id="Layer_2">
</g>
</svg>
