<?xml version="1.0" encoding="utf-8"?>
<!-- Generator: Adobe Illustrator 20.1.0, SVG Export Plug-In . SVG Version: 6.00 Build 0)  -->
<svg version="1.1" xmlns="http://www.w3.org/2000/svg" xmlns:xlink="http://www.w3.org/1999/xlink" x="0px" y="0px"
	 viewBox="0 0 155.9 155.9" style="enable-background:new 0 0 155.9 155.9;" xml:space="preserve">
<style type="text/css">
	.st0{fill-rule:evenodd;clip-rule:evenodd;fill:#58646D;}
	.st1{fill-rule:evenodd;clip-rule:evenodd;fill:#BE111F;}
	.st2{fill-rule:evenodd;clip-rule:evenodd;fill:#FFFFFF;}
</style>
<g id="Layer_1">
	<g>
		<path class="st0" d="M148.9,20c0-7.3-5.9-13.1-13.1-13.1H20.2C13,6.8,7.1,12.7,7.1,20v115.6c0,7.3,5.9,13.1,13.1,13.1h115.6
			c7.3,0,13.1-5.9,13.1-13.1V20z"/>
		<g id="_x34_fsVNb.tif_1_">
			<g>
				<path class="st1" d="M86,33.5c0,0.2,0,0.3,0,0.5c0,1.9,0,3.8,0,5.6c0,0.3,0,0.5,0.5,0.6c7.3,0.9,13.1,6.7,14.2,13.9
					c0.1,1,0.2,2,0.2,3c0,27,0,54,0,80.9c0,0.2,0,0.4,0,0.7c-14.5,0-29,0-43.5,0c0-0.2,0-0.5,0-0.7c0-27.2,0-54.4,0-81.6
					c0-8.1,6.4-15.3,14.4-16.2c0.2,0,0.5-0.2,0.5-0.4c0-2.1,0-4.1,0-6.3c-1,0-1.9,0-2.8,0c-0.7,0-1.2,0.1-1.8,0.5
					c-4.8,2.8-9.6,5.5-14.4,8.2c-0.5,0.3-0.7,0.6-0.7,1.1c-0.2,1.5-0.5,3.1-0.7,4.6c0,0.1-0.1,0.3-0.1,0.5c-1.5-0.2-2.9-0.5-4.5-0.7
					c0.1-0.8,0.3-1.6,0.4-2.4c0.4-2.3,0.8-4.5,1.3-6.8c0-0.3,0.2-0.6,0.4-0.7c5.3-4.1,10.6-8.2,15.9-12.3c0.2-0.2,0.5-0.3,0.8-0.3
					c2.3,0,4.5,0,6.8,0c0.4,0,0.7-0.1,0.8-0.6c0.3-1.2,0.7-2.3,1-3.5c0.1-0.3,0.2-0.4,0.6-0.4c2.8,0,5.6,0,8.3,0
					c0.3,0,0.5,0.1,0.6,0.4c0.3,1.1,0.6,2.2,0.9,3.3c0.1,0.4,0.3,0.6,0.7,0.6c2.2,0,4.5,0,6.7,0c0.4,0,0.8,0.1,1.2,0.3
					c0.7,0.3,1.4,0.6,2.1,1c0.6,0.3,1,0.7,0.9,1.4c-0.1,1.3-0.1,2.5-0.2,3.8c0,0.4-0.2,0.7-0.6,0.8c-0.9,0.3-1.7,0.7-2.6,1
					c-0.3,0.1-0.6,0.2-0.9,0.2C90.2,33.5,88.1,33.5,86,33.5z"/>
			</g>
		</g>
		<rect x="63.5" y="64.1" class="st2" width="31.6" height="15.6"/>
	</g>
</g>
<g id="Layer_2">
</g>
</svg>
