<?xml version="1.0" encoding="utf-8"?>
<!-- Generator: Adobe Illustrator 20.1.0, SVG Export Plug-In . SVG Version: 6.00 Build 0)  -->
<svg version="1.1" xmlns="http://www.w3.org/2000/svg" xmlns:xlink="http://www.w3.org/1999/xlink" x="0px" y="0px"
	 viewBox="0 0 155.9 155.9" style="enable-background:new 0 0 155.9 155.9;" xml:space="preserve">
<style type="text/css">
	.st0{fill-rule:evenodd;clip-rule:evenodd;fill:#58646D;}
	.st1{fill-rule:evenodd;clip-rule:evenodd;fill:#3F3F3F;stroke:#935E35;stroke-width:3;stroke-miterlimit:10;}
	.st2{fill-rule:evenodd;clip-rule:evenodd;fill:#6E6E6E;}
	.st3{fill-rule:evenodd;clip-rule:evenodd;fill:#363C44;}
</style>
<g id="Layer_1">
	<path class="st0" d="M148.6,20.2c0-7.2-5.9-13.1-13.1-13.1H20.4c-7.2,0-13.1,5.9-13.1,13.1v115.2c0,7.2,5.9,13.1,13.1,13.1h115.2
		c7.2,0,13.1-5.9,13.1-13.1V20.2z"/>
	<polygon class="st1" points="138.1,77.8 78,108.8 17.8,77.8 78,46.7 	"/>
	<polygon class="st2" points="78,119.9 141.2,86.2 141.2,80.4 78,114.1 	"/>
	<path class="st3" d="M64.6,87.7c-0.6,0.9-1.7,1.2-2.6,0.6l-4.2-2.6c-0.9-0.6-1.2-1.7-0.6-2.6l0,0c0.6-0.9,1.7-1.2,2.6-0.6l4.2,2.6
		C64.9,85.6,65.2,86.8,64.6,87.7L64.6,87.7z"/>
	<path class="st3" d="M94.9,70.7c-0.6,0.9-1.7,1.2-2.6,0.6l-4.2-2.6c-0.9-0.6-1.2-1.7-0.6-2.6l0,0c0.6-0.9,1.7-1.2,2.6-0.6l4.2,2.6
		C95.2,68.6,95.4,69.8,94.9,70.7L94.9,70.7z"/>
</g>
<g id="Layer_2">
</g>
</svg>
