<?xml version="1.0" encoding="utf-8"?>
<!-- Generator: Adobe Illustrator 20.1.0, SVG Export Plug-In . SVG Version: 6.00 Build 0)  -->
<svg version="1.1" xmlns="http://www.w3.org/2000/svg" xmlns:xlink="http://www.w3.org/1999/xlink" x="0px" y="0px"
	 viewBox="0 0 155.9 155.9" style="enable-background:new 0 0 155.9 155.9;" xml:space="preserve">
<style type="text/css">
	.st0{fill-rule:evenodd;clip-rule:evenodd;fill:#58646D;}
	.st1{fill-rule:evenodd;clip-rule:evenodd;fill:#FFFFFF;}
	.st2{fill-rule:evenodd;clip-rule:evenodd;fill:#D9DADA;}
	.st3{fill-rule:evenodd;clip-rule:evenodd;fill:#B1E0F9;}
	.st4{fill-rule:evenodd;clip-rule:evenodd;fill:#B1B2B3;}
</style>
<g id="Layer_1">
	<g>
		<path class="st0" d="M148.5,20.2c0-7.2-5.9-13.1-13.1-13.1H20.3C13,7.1,7.2,13,7.2,20.2v115.5c0,7.2,5.9,13.1,13.1,13.1h115.2
			c7.2,0,13.1-5.9,13.1-13.1V20.2z"/>
		<polygon class="st1" points="69,106.9 110.7,128.8 110.7,28.9 69,28 		"/>
		<polygon class="st1" points="38,90.8 63.8,104.3 63.8,28 38,27.5 		"/>
		<polygon class="st2" points="74.7,105.4 102.3,119.1 102.3,104.6 74.7,94.5 		"/>
		<polygon class="st3" points="74.7,38.4 102.3,40.7 102.3,98.5 74.7,89.3 		"/>
		<polygon class="st4" points="76.3,88.7 74.7,89.3 74.7,38.4 76.3,38.5 		"/>
		<polygon class="st4" points="102.3,97.4 76.3,88.7 74.7,89.3 102.3,98.5 		"/>
		<polygon class="st4" points="75.9,104.9 74.7,105.3 74.7,94.5 75.9,95 		"/>
		<polygon class="st4" points="102.3,119.1 74.7,105.4 75.9,104.9 102.3,117.9 		"/>
		<polygon class="st4" points="114.7,126.1 112,128.7 112,28.9 114.7,28.3 		"/>
	</g>
</g>
<g id="Layer_2">
</g>
</svg>
