<?xml version="1.0" encoding="utf-8"?>
<!-- Generator: Adobe Illustrator 20.1.0, SVG Export Plug-In . SVG Version: 6.00 Build 0)  -->
<svg version="1.1" xmlns="http://www.w3.org/2000/svg" xmlns:xlink="http://www.w3.org/1999/xlink" x="0px" y="0px"
	 viewBox="0 0 155.9 155.9" style="enable-background:new 0 0 155.9 155.9;" xml:space="preserve">
<style type="text/css">
	.st0{fill-rule:evenodd;clip-rule:evenodd;fill:#58646D;}
	.st1{fill-rule:evenodd;clip-rule:evenodd;fill:#94C11A;}
</style>
<g id="Layer_1">
	<path class="st0" d="M148.3,20.2c0-7.2-5.9-13.1-13.1-13.1H20.2c-7.2,0-13.1,5.9-13.1,13.1v115.1c0,7.2,5.9,13.1,13.1,13.1h115.1
		c7.2,0,13.1-5.9,13.1-13.1V20.2z"/>
	<g id="ACR1EU.tif_2_">
		<g>
			<path class="st1" d="M24.5,77.6c1.3,3.4,2.5,6.9,3.8,10.3c0.8,2,1.6,4,2.5,6.1c-0.8-8-1.3-15.8,0.3-23.7c0.1,0,0.3,0,0.4,0
				c0.9,6.9,1.9,13.8,2.8,20.8c0.1-0.1,0.1-0.1,0.2-0.2c0.4,0.6,0.9,1.3,1.4,1.9c0.3,0.4,0.8,0.6,1.1,1c0.3-0.4,0.6-0.7,0.8-1.1
				c1.4-2.8,2.8-5.5,4.1-8.3c0.3-0.7,0.3-1.6,0.5-2.4c0.2-0.7,0.4-1.4,0.6-2.1c0.2,0,0.3,0,0.5,0c0.2,1.4,0.3,2.9,0.5,4.3
				c0.1,0,0.2,0,0.3,0c0-1.2,0-2.4,0-3.5c0.1,0,0.2,0,0.3,0c0.1,1.4,1.7-0.5,0.7,0.1c0.5-7.1,1.1-14,1.6-20.9c0.1,0,0.2,0,0.3,0
				c0.1,1.7,0.2,3.4,0.3,5.2c0.1,1.7,0.3,3.4,0.5,5.2c0-7.2-0.8-14.4,2.4-21.2c2.5,10.4,6,20.6,7,31.3c-0.1-1.4-0.2-2.9-0.4-4.3
				c-0.2-1.4-0.4-2.9-0.6-4.3c-0.2-1.1-0.5-2.3-0.6-3.4c-0.1-1.5-0.3-3-0.1-4.4c1.2-6.8,2.4-13.7,3.8-20.5c0.4-1.9,1.3-3.8,2-5.6
				c0.2,0,0.4,0.1,0.6,0.1c0.3,4.3,0.7,8.6,0.9,12.9c0.1,2.5,0.1,4.9-0.1,7.4c-0.2,2.1,0.5,3.8,1.4,5.6c2.1,3.7,4,7.5,6,11.2
				c0.1,0.1,0.2,0.2,0.3,0.3c1.6-1.9,2.6-3.8,2.7-6.5c0.2-4.6,1-9.2,1.6-13.8c0.1-0.9,0.6-1.8,0.9-2.6c0.2,0,0.3,0,0.5,0
				c0.5,3.2,1.1,6.4,1.7,9.7c-0.4-0.2-0.7-0.4-1-0.6c-0.2,1.4-0.4,2.8-0.6,4.2c0.1,0,0.1,0,0.2,0.1c0.3-0.9,0.5-1.9,0.8-3
				c1.5,1.6,1.6,3.5,1.9,5.3c0.1,0,0.2,0,0.4-0.1c-0.2-1.2-0.4-2.5-0.5-3.7c-0.1-0.7-0.3-1.4-0.2-2c0.3-2.1,0.7-4.3,1.4-6.5
				c0.3,0.8,0.8,1.6,1,2.5c1,5.1,1.8,10.3,1.5,15.5c0,0.3,0.3,0.6,0.4,0.8c2,3.4,4,6.7,5.9,10.1c0.3,0.6-0.2,1.5-0.3,2.2
				c1.1-2,2.2-4.2,3.3-6.3c0.2,0,0.3,0.1,0.5,0.1c0.5,1.5,1.1,3.1,1.6,4.6c0.2,0,0.4-0.1,0.6-0.1c0-0.7,0-1.4-0.1-2.1
				c-0.7-8-1.7-16.1-2.1-24.1c-0.3-5.5,0.3-11.1,0.6-16.6c0.2,0,0.4-0.1,0.6-0.1c0.5,1,1.1,2.1,1.3,3.2c0.9,4.1,1.8,8.2,2.6,12.3
				c0.6,3.2,1.3,6.4,1.7,9.6c0.2,1.3-0.1,2.7-0.3,4c-0.2,1.8-0.6,3.5-0.7,5.3c1.9-7.8,3.8-15.6,5.7-23.5c0.1,0,0.3-0.1,0.4-0.1
				c0.4,0.7,0.8,1.4,1,2.2c1.3,4.7,1.4,9.4,1.1,14.2c-0.1,1-0.1,2,0.1,3c0.3-3.1,0.6-6.3,0.8-9.4c0.1,0,0.1,0,0.2,0
				c0.4,6.5,0.9,13,1.4,19.7c-0.8-0.6-0.6,2.7,0.5,3.7c0.1-1.4,0.1-2.6,0.2-3.7c0.1,0,0.2,0,0.3,0c0,0.9-0.1,1.9-0.1,2.8
				c0.1,0,0.2,0,0.3,0c0.2-1.2,0.4-2.5,0.6-3.7c0.1,0,0.2-0.1,0.4-0.1c0.2,0.4,0.4,0.9,0.5,1.3c0.2,1.8,0.8,3.3,1.8,4.8
				c1.1,1.8,1.8,3.9,2.7,5.9c0.2,0.4,0.5,0.7,0.7,1c0.4-0.3,0.8-0.5,1.1-0.8c0.5-0.5,0.8-1.1,1.5-1.4c0.9-6.5,1.7-13,2.6-19.6
				c0.1,0,0.3,0,0.4,0c1.5,7.3,0.9,14.7,0.3,21.9c3-7.3,6-14.8,9.1-22.3c0.3,0,0.5,0.1,0.8,0.1c0.1,1.9,0.4,3.8,0.1,5.6
				c-0.9,5.8-2,11.6-3.1,17.4c-0.3,1.6-0.6,3.1-0.6,4.7c0.6-2.5,1.2-4.9,1.7-7.4c0.9-4.6,1.8-9.2,2.5-13.8c0.2-1.4,0.4-2.9,0.2-4.3
				c-0.4-3.9,1.6-7.1,2.8-10.6c0.1,0,0.3,0,0.4,0c-0.1,0.9,0,1.7-0.2,2.6c-1.1,7.4-2.2,14.8-3.4,22.2c-0.5,3.3-1.3,6.6-2.1,9.9
				c-0.7,2.9-1.5,5.7-2.2,8.6c-0.2,1-0.7,1.4-1.8,1.4c-2.6-0.1-5.1,0-7.7,0c-0.9,0-1.3-0.3-1.3-1.3c0-1.1,0-2.1-0.2-3.2
				c0,0.7,0,1.4,0,2.1c0,2.4-0.1,2.5-2.8,2.2c-1.2-6.1-2.6-9.1-2.3-7.5c-0.1,0-0.7-1.4-1-2.5c0,1.7,1,4.8,1,5.1
				c0.2,1.6,0.3,3.1,0.4,4.6c-0.3,0.1-0.6,0.1-0.9,0.2c-0.4,0.1-0.8,0.2-1.2,0.2c-2.2,0-2.2,0-2.3-2.1c0-0.2,0-0.4-0.2-0.6
				c0,0.9-0.1,1.7-0.1,2.8c-1.1,0-2.2,0-3.2,0c-19.1,0-38.3,0-57.4-0.1c-0.8,0-2.1,0.7-2.1-0.8c-1.4,1.6-3.2,0.3-4.7,0.7
				c0.1-1.9,0.2-3.7,0.4-5.5c0.4-3.8,0.9-7.6,1.4-11.3c0.1-0.6,0.1-1.1,0.2-2.1c1.2,2.1,2,3.9,2,6.1c0,2.1,0.3,4.3,0.5,6.4
				c0.1,0.8,0.2,1.6,0.3,2.6c0.6-7.5-0.2-13.3-3-16.1c-1.3,6.6-2.7,13.2-4,19.9c-2.5,0.3-2.8,0.1-2.9-2.3c0-0.7,0-1.4-0.3-2.1
				c0,1.1,0,2.3,0,3.4c0,0.8-0.3,1.1-1.1,1.1c-2.9,0-5.9,0-8.8-0.1c-0.4,0-1-0.6-1.1-1c-0.5-2.1-0.8-4.3-1.3-6.5
				c-0.2-0.7-0.8-1.3-0.9-2c-0.7-3-1.5-6-2-9c-1.5-8.8-2.8-17.5-4.2-26.3C16,63.1,16,62,15.9,60.9c0.1,0,0.3-0.1,0.4-0.1
				c1.1,3,2.2,5.9,3.1,9c0.3,0.8-0.2,1.8-0.1,2.7c0.5,4.7,1,9.4,1.8,14c0.9,5.3,2.2,10.5,3.7,15.6c-0.2-1.1-0.4-2.2-0.7-3.3
				c-1-4.7-2.1-9.3-3-14c-0.6-3.5-1-7.1-1.2-10.6c-0.1-1.5,0.3-3,0.5-4.8C22.1,72.4,23.3,75,24.5,77.6L24.5,77.6z M67,85.9
				c-0.5-1.6-0.7-3.2,0.3-4.6c0.1-0.2,0-0.5,0-0.7c-0.6-5.2-1.4-10.3-4.1-14.9c-0.2-0.3-0.4-0.6-0.6-1c-0.7,6.5-1.4,12.8-2.1,19.5
				c1.9-1.5,1.7-3.5,2.6-5.4c0,0.6,0,1,0,1.4c0.3-0.2,0.5-0.4,0.9-0.8C65,81.6,66,83.7,67,85.9z M75.8,67.4
				c-1.6,6.5-3.1,13-3.3,19.3C73.6,80.6,74.7,74,75.8,67.4z M42.5,98c-0.1,0-0.2,0-0.3,0c-0.1,1.6-0.1,3.2-0.2,4.9
				c0.2,0,0.4,0,0.5,0C42.5,101.3,42.5,99.6,42.5,98z M83,86.1c0.1,0,0.2-0.1,0.3-0.1c-0.2-1.8-0.4-3.5-0.7-5.3
				c-0.1,0-0.2,0-0.3,0.1C82.6,82.6,82.8,84.3,83,86.1z"/>
		</g>
	</g>
</g>
<g id="Layer_2">
</g>
</svg>
