<?xml version="1.0" encoding="utf-8"?>
<!-- Generator: Adobe Illustrator 20.1.0, SVG Export Plug-In . SVG Version: 6.00 Build 0)  -->
<svg version="1.1" xmlns="http://www.w3.org/2000/svg" xmlns:xlink="http://www.w3.org/1999/xlink" x="0px" y="0px"
	 viewBox="0 0 155.9 155.9" style="enable-background:new 0 0 155.9 155.9;" xml:space="preserve">
<style type="text/css">
	.st0{fill-rule:evenodd;clip-rule:evenodd;fill:#58646D;}
	.st1{fill-rule:evenodd;clip-rule:evenodd;fill:#999999;}
	.st2{fill-rule:evenodd;clip-rule:evenodd;fill:#C5C6C6;}
	.st3{fill-rule:evenodd;clip-rule:evenodd;fill:#9C9C9C;}
	.st4{fill-rule:evenodd;clip-rule:evenodd;fill:#8F8173;}
	.st5{fill-rule:evenodd;clip-rule:evenodd;fill:#A3897A;}
	.st6{fill-rule:evenodd;clip-rule:evenodd;fill:#CABB9F;}
	.st7{fill-rule:evenodd;clip-rule:evenodd;fill:#B8AF9C;}
</style>
<g id="Layer_1">
	<path class="st0" d="M148.7,20.2c0-7.2-5.9-13.1-13.1-13.1H20.2C13,7.1,7.1,13,7.1,20.2v115.4c0,7.2,5.9,13.1,13.1,13.1h115.4
		c7.2,0,13.1-5.9,13.1-13.1V20.2z"/>
	<path class="st1" d="M133.6,89.7c-0.2,0-0.2-0.2-0.2-0.3c0-0.1,0-0.3,0-0.4C133.6,89.2,133.6,89.4,133.6,89.7z"/>
	<path class="st2" d="M42.4,90.3c0.1-3.1,0.8-6.1,2.1-8.9c1.6-3.5,3.8-6.5,7-8.6c4.6-3.1,9.3-2.9,13.9-0.1c3.3,2,6,4.7,8.1,7.9
		c3.5,5.3,3,10.8-0.8,15.7c-2.6,3.3-5.8,5.6-9.5,7.6c-3.2,1.7-6.5,2.9-10.1,3.7c-1.3,0.3-2.3-0.1-3.2-1c-1.5-1.5-2.6-3.2-3.6-5
		c-1.5-2.8-2.9-5.8-3.7-8.9C42.4,91.8,42.4,91.1,42.4,90.3z M53.8,105c-0.1-0.5-0.3-1-0.5-1.5c-1.4-3.1-3.1-6.1-4.8-9.1
		c-1-1.7-1.6-3.4-1.8-5.4c-0.1-1.1-0.1-2.2-0.1-3.4c0-0.2,0.1-0.4-0.2-0.5c-0.2-0.1-0.3,0.2-0.4,0.4c-1.1,2.6-1.4,5.3-0.5,8
		c1.1,3.3,2.8,6.3,4.9,9.1c0.8,1,1.6,1.9,2.7,2.6c0.1,0.1,0.3,0.2,0.5,0.1C53.8,105.4,53.8,105.2,53.8,105z"/>
	<path class="st3" d="M99.1,48.9c5.8,0.9,10,4.1,13.2,8.9c1.2,1.9,2.2,3.8,2.9,5.9c0.8,2.4,0.2,4.6-1.1,6.6c-1,1.6-2.3,2.8-3.7,4.1
		c-1.8,1.6-3.7,3.1-5.4,4.7c-2.1,2-4.6,3.1-7.5,2.9c0-0.1,0-0.2,0-0.3c0-0.2,0-0.4-0.3-0.5c-0.3-0.1-0.4,0.1-0.6,0.3
		c-0.1,0.1-0.2,0.2-0.2,0.4l0,0c-2.3-0.5-4-1.9-5.7-3.3c-2.8-2.4-5.1-5.2-6.4-8.7c-0.7-1.9-1-3.9-0.9-6c0.2-3.3,1.4-6.3,3.4-9
		c0.1-0.1,5.9-4.9,6-5.1C92.8,49.6,97.6,48.7,99.1,48.9z M87.6,73c0.3,0,0.4,0.3,0.6,0.5c1,1.3,2.2,2.5,3.6,3.5
		c0.9,0.6,1.9,1.1,3,1.5c0.2,0,0.4,0.2,0.5,0c0.1-0.2-0.2-0.3-0.3-0.4c-0.5-0.4-1-0.9-1.5-1.4c-1.1-1.3-1.8-2.8-2.5-4.2
		c-1.9-3.9-3.3-7.9-3.7-12.3c0-0.2,0-0.5-0.3-0.5c-0.2,0-0.3,0.3-0.4,0.5c-0.4,1-0.6,2.1-0.8,3.2c-0.7,3.2-0.5,6.3,1.6,9.1
		C87.6,72.5,87.7,72.7,87.6,73L87.6,73z"/>
	<path class="st4" d="M85.6,54.7c-0.9,0.9-2,1.7-3.2,2.3c-2.3,1.2-4.6,0.9-6.9-0.1c-1.8-0.8-3.4-1.8-5-2.9c-2.8-1.8-5.5-3.8-7.7-6.3
		c-0.6-0.7-1.2-1.4-1.6-2.3c-1.2-2.3-0.9-4.3,0.7-6.3c1.4-1.7,3.2-3,5.1-4.2c3.1-2,6.2-3.9,9.5-5.6c1.1-0.6,2.3-1,3.6-1.3
		c2.7-0.5,4.9,0.3,6.9,2.1c2.6,2.4,4.6,5.3,6.2,8.4c1.2,2.4,1,4.7-0.3,7C92.6,46.1,86.1,54.2,85.6,54.7z M81.2,56
		c0.2,0,0.5-0.1,0.8-0.1c0.2,0,0.4,0,0.4-0.2c0.1-0.3-0.2-0.3-0.3-0.4c-1.2-0.5-2.4-0.9-3.7-1.3c-1.9-0.6-3.9-1.1-5.7-2.2
		c-2-1.3-3.6-3-5.1-4.8c-1.4-1.7-2.6-3.5-3.9-5.2c-0.1-0.2-0.2-0.4-0.5-0.3c-0.2,0.1-0.1,0.3-0.1,0.5c0.1,1.7,0.6,3.2,1.5,4.7
		c2.6,4.2,6.1,7.1,10.9,8.5C77.3,55.6,79.1,55.9,81.2,56z"/>
	<path class="st5" d="M111.3,78.7c2.9,0.1,5.5,0.8,7.9,2.3c2.6,1.6,3.6,3.9,3.3,6.9c-0.2,1.6-0.5,3.1-1.1,4.5
		c-1,2.7-1.6,5.4-1.6,8.3c0,1.9-0.4,3.9-1.1,5.7c-1,2.7-2.9,4.1-5.8,4.5c-2,0.3-4,0.2-5.9-0.4c-1.8-0.6-3.2-1.8-4.4-3.3
		c-1.6-2.1-2.6-4.5-3.1-7.1c-0.9-4.2-1.1-8.5,0.4-12.6c1.6-4.5,4.7-7.7,9.6-8.7c0.1,0,0.3,0,0.4-0.1C110.5,78.8,111,78.7,111.3,78.7
		z M115.2,107.2c-0.3-0.2-0.5,0-0.7,0c-0.9,0.1-1.9,0.1-2.7-0.2c-1.8-0.7-3.6-1.6-5.3-2.7c-1.7-1.1-3.1-2.6-4.5-4
		c-0.1-0.1-0.2-0.4-0.4-0.3c-0.2,0.1-0.1,0.4,0,0.6c0.7,2.2,1.7,4.2,3,6.1c0.4,0.5,0.8,1.1,1.4,1.4c2.2,1.1,4.5,1.6,6.9,0.8
		C113.7,108.5,114.6,108,115.2,107.2z"/>
	<path class="st6" d="M63.3,53.1c3.1,0,5.6,1.1,7.9,2.6c2.9,1.9,5.3,4.4,7.2,7.2c2.1,2.9,3.8,6,4.6,9.6c0.4,1.7,0.7,3.5,0.1,5.2
		c-0.6,1.8-2,2.7-3.9,2.8c-2.7,0.1-4.8-0.9-6.6-2.8c-0.9-1-1.8-2-2.7-2.9c-1.8-2-4.1-3.3-6.4-4.7c-2.3-1.4-4.7-2.6-7-4.1
		c-0.8-0.6-1.6-1.2-2.2-2c-1.3-1.6-1.5-3.2-0.3-5c1.8-2.8,4.3-4.9,7.6-5.6C62.4,53.1,63,53,63.3,53.1z M60.5,64.9
		c-0.3,0-0.7,0-0.8,0.4c-0.1,0.3,0.2,0.5,0.4,0.6c0.5,0.4,1.1,0.9,1.7,1.3c3.6,2.4,7,5.1,10.2,8c1.3,1.2,2.6,2.5,4.1,3.4
		c0.2,0.1,0.5,0.4,0.7,0.2c0.3-0.2-0.1-0.5-0.2-0.7c0-0.1-0.1-0.1-0.1-0.2c-1-1.4-2-2.7-3.3-3.8c-1.4-1.1-2.7-2.3-4-3.5
		c-1.7-1.6-3.6-3.1-5.5-4.4C62.7,65.6,61.7,65,60.5,64.9z"/>
	<path class="st4" d="M112.5,53.2c-0.9,0-1.8-0.1-2.5-0.6c-3.5-2.2-7.4-3.7-11-5.8c-0.6-0.4-1.2-0.9-1.6-1.4c-1-1.1-1-2.4-0.4-3.7
		c0.5-1.1,1.2-2,2-2.8c2-2,3.7-4.2,5.8-6c1.5-1.3,3.1-2.3,5-2.8c1.6-0.5,3,0,4.2,1.1c3.3,3.4,6.1,7.1,7.6,11.6
		c0.4,1.1,0.6,2.3,0.4,3.5c-0.1,0.4-0.2,0.8-0.5,1.2c-1.8,2.1-3.9,4-6.4,5.2C114.2,53,113.4,53.2,112.5,53.2z M110.5,50.4
		c1,0.1,1.9-0.9,2.9-1.6c0.1-0.1,0.4-0.2,0.3-0.5c-0.1-0.3-0.4-0.2-0.6-0.2c-0.7,0.1-1.5,0.1-2.2,0.2c-1.8,0.1-3.5,0-5.1-1
		c-1.3-0.8-2.5-1.6-3.7-2.5c-1-0.8-2.1-1.5-3.2-2.1c-0.3-0.2-0.7-0.3-1-0.1c-0.3,0.2-0.1,0.6,0,0.9c0.3,1,1,1.7,1.8,2.4
		c1.8,1.6,3.9,2.6,6.1,3.5C107.2,49.9,108.6,50.3,110.5,50.4z"/>
	<path class="st4" d="M46.7,106.5c-0.1,2.8-0.6,5.4-1.5,8.1c-0.3,1-0.8,1.8-1.3,2.7c-0.5,0.8-1.3,1.2-2.3,1.2
		c-2.4,0.1-4.8-0.4-7.1-0.9c-2.8-0.6-5.5-1.5-8.1-2.5c-1.8-0.7-3.6-1.6-5-3c-1.5-1.5-1.3-2.8,0.5-3.8c1.5-0.9,3.2-1.4,4.9-1.8
		c2.5-0.7,5-1.2,7.4-1.9c1.6-0.5,3.2-1.2,4.7-2.1c0.9-0.5,1.8-0.9,2.8-1.2c2.5-0.8,4.1,0.8,4.7,2.7
		C46.7,104.7,46.7,105.6,46.7,106.5z M29.2,109.4c-1.3,0.1-2.7,0-4.1,0.5c-1,0.4-1.1,0.9-0.3,1.6c0.9,0.9,2.1,1.4,3.3,1.9
		c2.4,1,4.8,1.9,7.4,2.5c1.3,0.3,2.6,0.7,4,0.7c0.3,0,0.6,0.1,0.8-0.2c0.1-0.3-0.1-0.6-0.3-0.8c-0.7-0.8-1.4-1.4-2.2-2.1
		c-1.1-1-2.3-1.8-3.1-3c-0.2-0.3-0.5-0.4-0.7-0.5C32.4,109.4,30.9,109.4,29.2,109.4z"/>
	<path class="st4" d="M125.2,31.4c3.2,0.3,6.3,1,8.7,3.5c0,0,0.1,0.1,0.1,0.1c1.6,2,1.7,2.8,0,4.8c-1,1.2-2,2.3-3.3,3.3
		c-2.3,1.7-3.9,1.8-6.3,0.3c-2.4-1.5-4-3.7-4.5-6.6c-0.5-2.9,1.1-5,4.1-5.3C124.5,31.4,124.8,31.4,125.2,31.4z M127.4,43
		c-0.4-0.7-0.9-1.1-1.4-1.6c-1.8-1.6-3.4-3.3-4-5.7c-0.1-0.5-0.3-0.9-0.5-1.4c-0.1-0.2-0.2-0.3-0.4-0.3c-0.2,0-0.2,0.2-0.2,0.3
		c-0.2,0.8-0.2,1.5,0.1,2.3c0.4,0.8,0.8,1.7,1.3,2.4c1.1,1.5,2.4,2.9,4.2,3.7C126.8,42.9,127.1,43,127.4,43z"/>
	<path class="st4" d="M122.9,107.7c2.8,0.2,5.1,1.3,6.6,3.6c1.1,1.6,0.9,3.4-0.1,5.1c-1,1.9-2.8,3-4.8,3.6c-1.1,0.3-2-0.1-2.9-0.6
		c-1-0.6-1.7-1.4-2.5-2.2c-0.4-0.4-0.8-0.7-1.2-1.1c-1-1-1.9-2.1-1.5-3.7c0-0.2,0.1-0.4,0.2-0.6C118,109.4,120,107.9,122.9,107.7z
		 M119,109.7c-0.2,0.1-0.3,0.3-0.4,0.4c-0.4,0.8-0.7,1.6-0.8,2.5c-0.1,0.7,0,1.3,0.4,1.9c1.2,1.8,2.8,3.1,4.8,3.9
		c0.3,0.1,0.6,0.4,0.8,0.1c0.2-0.3-0.3-0.4-0.5-0.6c-1.8-1.3-3.2-2.9-3.7-5.2c-0.2-0.9-0.4-1.7-0.4-2.6
		C119.2,110,119.3,109.8,119,109.7z"/>
	<path class="st7" d="M96.8,82.1c-0.1,0-0.3-0.1-0.4-0.1c0.1-0.1,0.1-0.3,0.2-0.4c0.1-0.2,0.3-0.3,0.6-0.3c0.3,0.1,0.2,0.3,0.3,0.5
		c0,0.1,0,0.2,0,0.3C97.3,82.4,97.1,81.9,96.8,82.1z"/>
	<path class="st7" d="M53.8,105c0,0.2,0,0.4-0.2,0.5c-0.2,0.1-0.3,0-0.5-0.1c-1-0.7-1.9-1.6-2.7-2.6c-2.1-2.8-3.8-5.8-4.9-9.1
		c-0.9-2.7-0.6-5.4,0.5-8c0.1-0.2,0.2-0.4,0.4-0.4c0.2,0.1,0.2,0.3,0.2,0.5c0,1.1,0,2.2,0.1,3.4c0.1,1.9,0.8,3.7,1.8,5.4
		c1.7,3,3.3,6,4.8,9.1C53.5,104,53.7,104.5,53.8,105z"/>
	<path class="st4" d="M25.7,49.1c0.1-3.1,0.8-6.1,2.1-8.9c1.6-3.5,3.8-6.5,7-8.6c4.6-3.1,9.3-2.9,13.9-0.1c3.3,2,6,4.7,8.1,7.9
		c3.5,5.3,3,10.8-0.8,15.7c-2.6,3.3-5.8,5.6-9.5,7.6c-3.2,1.7-6.5,2.9-10.1,3.7c-1.3,0.3-2.3-0.1-3.2-1c-1.5-1.5-2.6-3.2-3.6-5
		c-1.5-2.8-2.9-5.8-3.7-8.9C25.7,50.6,25.7,49.8,25.7,49.1z M37.1,63.7c-0.1-0.5-0.3-1-0.5-1.5c-1.4-3.1-3.1-6.1-4.8-9.1
		c-1-1.7-1.6-3.4-1.8-5.4C30,46.7,30,45.6,30,44.4c0-0.2,0-0.4-0.2-0.5c-0.2-0.1-0.3,0.2-0.4,0.4c-1.1,2.6-1.4,5.3-0.5,8
		c1.1,3.3,2.8,6.3,4.9,9.1c0.8,1,1.6,1.9,2.7,2.6c0.1,0.1,0.3,0.2,0.5,0.1C37.1,64.1,37.1,63.9,37.1,63.7z"/>
	<path class="st7" d="M37.1,63.7c0,0.2,0,0.4-0.2,0.5c-0.2,0.1-0.3,0-0.5-0.1c-1-0.7-1.9-1.6-2.7-2.6c-2.1-2.8-3.8-5.8-4.9-9.1
		c-0.9-2.7-0.6-5.4,0.5-8c0.1-0.2,0.2-0.4,0.4-0.4c0.2,0.1,0.2,0.3,0.2,0.5c0,1.1,0,2.2,0.1,3.4c0.1,1.9,0.8,3.7,1.8,5.4
		c1.7,3,3.3,6,4.8,9.1C36.8,62.7,37,63.2,37.1,63.7z"/>
	<path class="st7" d="M87.6,73c0-0.2-0.1-0.5-0.2-0.7c-2.1-2.8-2.3-5.9-1.6-9.1c0.2-1.1,0.4-2.2,0.8-3.2c0.1-0.2,0.1-0.5,0.4-0.5
		c0.3,0,0.2,0.3,0.3,0.5c0.4,4.3,1.8,8.4,3.7,12.3c0.7,1.5,1.4,3,2.5,4.2c0.4,0.5,0.9,1,1.5,1.4c0.1,0.1,0.4,0.2,0.3,0.4
		c-0.1,0.2-0.3,0.1-0.5,0c-1.1-0.3-2.1-0.8-3-1.5c-1.4-1-2.6-2.1-3.6-3.5C88.1,73.3,88,73,87.6,73L87.6,73z"/>
	<path class="st7" d="M87.6,73L87.6,73L87.6,73z"/>
	<path class="st7" d="M81.2,56c-2-0.1-3.9-0.4-5.7-0.9c-4.8-1.3-8.3-4.3-10.9-8.5c-0.9-1.4-1.4-3-1.5-4.7c0-0.2-0.1-0.4,0.1-0.5
		c0.2-0.1,0.4,0.2,0.5,0.3c1.3,1.7,2.5,3.5,3.9,5.2c1.5,1.8,3.1,3.5,5.1,4.8c1.8,1.1,3.8,1.6,5.7,2.2c1.2,0.4,2.5,0.8,3.7,1.3
		c0.2,0.1,0.4,0.1,0.3,0.4c0,0.2-0.3,0.2-0.4,0.2C81.7,55.9,81.4,55.9,81.2,56z"/>
	<path class="st7" d="M115.2,107.2c-0.6,0.8-1.5,1.3-2.4,1.6c-2.4,0.8-4.7,0.3-6.9-0.8c-0.6-0.3-1-0.8-1.4-1.4
		c-1.3-1.9-2.3-3.9-3-6.1c-0.1-0.2-0.2-0.4,0-0.6c0.2-0.1,0.3,0.2,0.4,0.3c1.4,1.5,2.8,2.9,4.5,4c1.7,1.1,3.5,1.9,5.3,2.7
		c0.9,0.3,1.8,0.4,2.7,0.2C114.7,107.1,114.9,107,115.2,107.2z"/>
	<path class="st4" d="M93.3,82.5c1.8,1.2,3,2.7,3.9,4.5c0.9,2,0.6,3.8-0.8,5.5c-0.7,0.9-1.5,1.7-2.5,2.3c-1.7,1.2-3.1,2.6-4.3,4.4
		c-0.8,1.2-1.7,2.2-2.9,3c-1.7,1.2-3.4,1.3-5.3,0.4c-1.3-0.6-2.5-1.4-3.4-2.6c-0.8-1.1-1.3-2.4-1.4-3.7c-0.2-1.9,0.2-3.7,0.9-5.5
		c1.1-2.9,2.7-5.6,5.2-7.5c2.8-2.1,5.9-2.8,9.3-1.4c0.1,0,0.2,0.1,0.3,0.1C92.8,82.2,93.1,82.4,93.3,82.5z M84.4,101.3
		c-0.1-0.2-0.3-0.2-0.4-0.3c-0.6-0.3-1.2-0.7-1.6-1.2c-0.8-1.2-1.6-2.4-2.2-3.7c-0.6-1.4-0.9-2.8-1.1-4.2c0-0.1,0-0.3-0.2-0.4
		c-0.2,0-0.2,0.2-0.2,0.3c-0.5,1.6-0.7,3.2-0.6,4.9c0,0.5,0.1,1,0.3,1.4c0.9,1.5,2.1,2.8,3.9,3.2C83,101.5,83.7,101.6,84.4,101.3z"
		/>
	<path class="st7" d="M84.4,101.3c-0.7,0.3-1.4,0.2-2.1,0c-1.8-0.5-3-1.7-3.9-3.2c-0.2-0.4-0.3-0.9-0.3-1.4c0-1.7,0.2-3.3,0.6-4.9
		c0-0.1,0-0.4,0.2-0.3c0.2,0,0.1,0.2,0.2,0.4c0.3,1.4,0.5,2.9,1.1,4.2c0.6,1.3,1.3,2.5,2.2,3.7c0.4,0.6,1,0.9,1.6,1.2
		C84.1,101.1,84.3,101.1,84.4,101.3z"/>
	<path class="st7" d="M60.5,64.9c1.2,0.1,2.2,0.7,3.1,1.3c2,1.3,3.8,2.8,5.5,4.4c1.3,1.2,2.7,2.3,4,3.5c1.3,1.1,2.4,2.4,3.3,3.8
		c0,0.1,0.1,0.1,0.1,0.2c0.1,0.2,0.4,0.5,0.2,0.7c-0.2,0.2-0.5-0.1-0.7-0.2c-1.5-0.9-2.8-2.2-4.1-3.4c-3.2-2.9-6.6-5.6-10.2-8
		c-0.6-0.4-1.1-0.8-1.7-1.3c-0.2-0.2-0.5-0.3-0.4-0.6C59.9,64.9,60.2,64.9,60.5,64.9z"/>
	<path class="st7" d="M110.5,50.4c-1.9-0.1-3.3-0.5-4.7-1c-2.2-0.9-4.3-2-6.1-3.5c-0.8-0.7-1.5-1.4-1.8-2.4c-0.1-0.3-0.3-0.7,0-0.9
		c0.3-0.2,0.7-0.1,1,0.1c1.1,0.6,2.2,1.4,3.2,2.1c1.2,0.9,2.4,1.7,3.7,2.5c1.5,1,3.3,1.2,5.1,1c0.7-0.1,1.5-0.1,2.2-0.2
		c0.2,0,0.5-0.1,0.6,0.2c0.1,0.2-0.1,0.3-0.3,0.5C112.4,49.6,111.5,50.5,110.5,50.4z"/>
	<path class="st4" d="M84.4,128.4c-4.8-0.9-8.4-3.4-11-7.5c-1.5-2.4-1.4-4.3,0.2-6.5c1.2-1.7,2.8-3.1,4.5-4.4
		c3.2-2.6,6.4-5.1,10.1-6.9c1.2-0.6,2.6-1,4-1.2c3.6-0.3,6.1,2.5,5,6c-0.3,1-0.6,1.9-0.9,2.9c-0.7,2.1-0.5,4.3-0.6,6.4
		c-0.1,2.1-0.2,4.3-0.9,6.3c-0.8,2.3-2.2,4.2-4.6,4.9c-1.6,0.5-3.3,0.3-5,0C84.9,128.5,84.6,128.5,84.4,128.4z M75.7,117
		c0,0-0.2,0.2,0,0.3c0.2,0.2,0.4-0.1,0.5-0.3c0.9-1.1,1.8-2.2,2.7-3.3c1.4-1.8,2.8-3.7,4.8-4.8c1.6-0.9,3.2-1.8,4.8-2.6
		c1.2-0.6,2.4-1.1,3.4-1.9c0.2-0.1,0.4-0.3,0.3-0.5c-0.1-0.3-0.4-0.3-0.6-0.3c-1-0.1-1.9,0.2-2.8,0.7c-3.6,1.9-6.8,4.3-9.8,7
		C77.5,112.8,76.3,114.6,75.7,117z"/>
	<path class="st7" d="M75.7,117c0.6-2.4,1.8-4.2,3.5-5.7c3-2.7,6.2-5.2,9.8-7c0.9-0.4,1.8-0.7,2.8-0.7c0.2,0,0.5,0,0.6,0.3
		c0.1,0.3-0.2,0.4-0.3,0.5c-1,0.8-2.3,1.3-3.4,1.9c-1.6,0.8-3.2,1.7-4.8,2.6c-2.1,1.2-3.4,3-4.8,4.8c-0.9,1.1-1.8,2.2-2.7,3.3
		c-0.1,0.2-0.3,0.4-0.5,0.3C75.6,117.2,75.7,117,75.7,117z"/>
	<path class="st7" d="M29.2,109.4c1.7,0,3.2,0.1,4.6,0.7c0.3,0.1,0.6,0.2,0.7,0.5c0.8,1.3,2.1,2,3.1,3c0.8,0.7,1.5,1.3,2.2,2.1
		c0.2,0.2,0.4,0.5,0.3,0.8c-0.1,0.4-0.5,0.2-0.8,0.2c-1.4,0-2.7-0.4-4-0.7c-2.5-0.7-5-1.5-7.4-2.5c-1.2-0.5-2.3-1-3.3-1.9
		c-0.7-0.7-0.6-1.3,0.3-1.6C26.5,109.4,28,109.4,29.2,109.4z"/>
	<path class="st4" d="M47.3,73.4c-0.9,2.6-2.1,5-3.8,7.3c-0.6,0.8-1.3,1.5-2,2.2c-0.8,0.7-1.6,0.8-2.5,0.5c-2.3-0.6-4.5-1.8-6.6-2.9
		c-2.5-1.4-4.8-3-7-4.8c-1.5-1.2-3-2.5-3.9-4.3c-1-1.8-0.4-3,1.6-3.5c1.7-0.4,3.5-0.4,5.2-0.4c2.6,0.1,5.1,0.3,7.7,0.3
		c1.7,0,3.4-0.3,5.1-0.7c1-0.3,2-0.3,3-0.4c2.6,0,3.7,1.9,3.7,4C47.8,71.7,47.6,72.5,47.3,73.4z M29.7,71.1
		c-1.2-0.3-2.6-0.8-4.1-0.7c-1,0.1-1.3,0.6-0.8,1.5c0.6,1.1,1.6,2,2.6,2.8c2,1.7,4.1,3.2,6.3,4.5c1.2,0.7,2.3,1.4,3.6,1.9
		c0.3,0.1,0.6,0.3,0.8,0c0.2-0.3,0.1-0.6-0.1-0.8c-0.4-0.9-0.9-1.8-1.5-2.7c-0.8-1.2-1.7-2.4-2.1-3.8c-0.1-0.3-0.3-0.5-0.6-0.7
		C32.8,72.1,31.3,71.6,29.7,71.1z"/>
	<path class="st7" d="M29.7,71.1c1.6,0.5,3.1,1,4.2,2c0.2,0.2,0.5,0.4,0.6,0.7c0.4,1.4,1.4,2.6,2.1,3.8c0.5,0.9,1.1,1.7,1.5,2.7
		c0.1,0.3,0.3,0.6,0.1,0.8c-0.2,0.3-0.6,0.1-0.8,0c-1.3-0.4-2.4-1.2-3.6-1.9c-2.2-1.4-4.3-2.9-6.3-4.5c-1-0.8-1.9-1.7-2.6-2.8
		c-0.5-0.9-0.2-1.4,0.8-1.5C27.1,70.3,28.5,70.8,29.7,71.1z"/>
	<path class="st7" d="M127.4,43c-0.4,0.1-0.6-0.1-0.8-0.2c-1.8-0.8-3-2.2-4.2-3.7c-0.6-0.7-0.9-1.6-1.3-2.4
		c-0.3-0.8-0.3-1.5-0.1-2.3c0-0.1,0.1-0.3,0.2-0.3c0.2,0,0.3,0.1,0.4,0.3c0.2,0.5,0.4,0.9,0.5,1.4c0.5,2.4,2.1,4.1,4,5.7
		C126.6,41.8,127.1,42.3,127.4,43z"/>
	<path class="st7" d="M119,109.7c0.3,0.1,0.2,0.3,0.2,0.5c0,0.9,0.2,1.8,0.4,2.6c0.5,2.2,2,3.8,3.7,5.2c0.2,0.2,0.6,0.3,0.5,0.6
		c-0.2,0.3-0.5,0-0.8-0.1c-2-0.8-3.6-2.1-4.8-3.9c-0.4-0.6-0.5-1.2-0.4-1.9c0.1-0.9,0.4-1.7,0.8-2.5
		C118.7,109.9,118.8,109.8,119,109.7z"/>
</g>
<g id="Layer_2">
</g>
</svg>
