<?xml version="1.0" encoding="utf-8"?>
<!-- Generator: Adobe Illustrator 20.1.0, SVG Export Plug-In . SVG Version: 6.00 Build 0)  -->
<svg version="1.1" xmlns="http://www.w3.org/2000/svg" xmlns:xlink="http://www.w3.org/1999/xlink" x="0px" y="0px"
	 viewBox="0 0 155.9 155.9" style="enable-background:new 0 0 155.9 155.9;" xml:space="preserve">
<style type="text/css">
	.st0{fill-rule:evenodd;clip-rule:evenodd;fill:#58646D;}
	.st1{opacity:0.4;fill-rule:evenodd;clip-rule:evenodd;fill:#363C44;}
	.st2{fill-rule:evenodd;clip-rule:evenodd;fill:#FFFFFF;}
	.st3{fill-rule:evenodd;clip-rule:evenodd;fill:#D9DADA;}
	.st4{fill-rule:evenodd;clip-rule:evenodd;fill:#B1B2B3;}
	.st5{fill-rule:evenodd;clip-rule:evenodd;fill:#C5C6C6;}
	.st6{fill-rule:evenodd;clip-rule:evenodd;fill:#9C9C9C;}
</style>
<g id="Layer_1">
	<g>
		<path class="st0" d="M148.5,20c0-7.3-5.9-13.1-13.1-13.1H19.7C12.5,6.8,6.6,12.7,6.6,20v115.6c0,7.3,5.9,13.1,13.1,13.1h115.6
			c7.3,0,13.1-5.9,13.1-13.1V20z"/>
		<polygon class="st1" points="94,89.6 100.9,95.7 101,95.7 97.5,87.1 94,78.4 90.5,87.1 87,95.7 87.2,95.7 		"/>
		<polygon class="st2" points="74.5,107.2 117.4,129.1 117.4,28.9 74.5,28 		"/>
		<polygon class="st2" points="42.8,92.3 69.3,106.1 69.3,28 42.8,27.5 		"/>
		<polygon class="st3" points="80.4,51.5 108.7,56 108.7,34 80.4,32.7 		"/>
		<polygon class="st3" points="80.4,78.8 108.7,88.3 108.7,60.5 80.4,55.1 		"/>
		<polygon class="st3" points="80.4,105.6 108.7,119.6 108.7,94.6 80.4,84.2 		"/>
		<polygon class="st2" points="93.5,60.5 96.9,70.9 100.6,81.6 93.5,74.4 86.9,77.5 90.1,69.2 		"/>
		<polygon class="st4" points="120.8,28.4 118.5,28.7 118.5,129.1 120.8,127.6 		"/>
		<polygon class="st5" points="82.5,50.5 80.4,51.5 80.4,32.7 82.5,35 		"/>
		<polygon class="st5" points="82.5,77.6 80.4,78.8 80.4,55.1 82.5,58 		"/>
		<polygon class="st5" points="82.5,104.5 80.4,105.5 80.4,84.2 82.5,86.9 		"/>
		<polygon class="st6" points="108.7,54.5 82.5,50.5 80.4,51.5 108.7,56 		"/>
		<polygon class="st6" points="108.7,117.2 82.5,104.5 80.4,105.6 108.7,119.6 		"/>
		<polyline class="st6" points="82.5,104.5 80.4,105.6 108.7,119.6 		"/>
	</g>
</g>
<g id="Layer_2">
</g>
</svg>
