<?xml version="1.0" encoding="utf-8"?>
<!-- Generator: Adobe Illustrator 20.1.0, SVG Export Plug-In . SVG Version: 6.00 Build 0)  -->
<svg version="1.1" xmlns="http://www.w3.org/2000/svg" xmlns:xlink="http://www.w3.org/1999/xlink" x="0px" y="0px"
	 viewBox="0 0 155.9 155.9" style="enable-background:new 0 0 155.9 155.9;" xml:space="preserve">
<style type="text/css">
	.st0{fill-rule:evenodd;clip-rule:evenodd;fill:#58646D;}
	.st1{fill-rule:evenodd;clip-rule:evenodd;fill:#A41101;}
	.st2{fill-rule:evenodd;clip-rule:evenodd;fill:#FDFDFD;}
	.st3{fill-rule:evenodd;clip-rule:evenodd;fill:#363C44;}
</style>
<g id="Layer_1">
	<path class="st0" d="M148.2,20.2c0-7.2-5.9-13.1-13.1-13.1H20c-7.2,0-13.1,5.9-13.1,13.1v115.1c0,7.2,5.9,13.1,13.1,13.1h115.1
		c7.2,0,13.1-5.9,13.1-13.1V20.2z"/>
	<g id="GmrfqE.tif">
		<g>
			<path class="st1" d="M71.2,40.8c0.7,2,1.4,3.6,2,5.5c2.1-0.9,2.5-2.8,2.2-4.7c-0.6-3.4-1.6-6.8-2.3-10.2
				c-0.9-4.4-0.8-8.7,2.3-12.5c-0.2,7.8,4.9,12.8,9.1,18.3c3.1,3.9,6.1,7.9,4.9,13.3c-0.5,2.3-1.4,4.5-2.2,6.8
				c1.9-0.5,3.6-1.1,5.2-1.6c-1.3,2.9-2.6,5.7-3.9,8.4c-1.5,3.3-3.9,5.7-7.2,7.2c-2,1-3.3,0.1-3.2-1.6c0.1-2.4,0.6-4.9,1.6-7.1
				c0.8-1.8,2.4-3.3,3.7-5c4.8-6.6,3.7-13.8-3.2-19.2c1.1,6.9-3,11.4-6.7,16.1c-4.6,5.8-4.9,10.2-0.8,16c-7.5-2.2-11.1-9.8-7.9-16.8
				c0.9-1.9,2.1-3.6,3-5.4C69,46.2,69.9,43.8,71.2,40.8z"/>
			<path class="st1" d="M81.6,50.5c0.9,2.8-0.8,4.7-2.7,6.4c-3.1,2.9-5.2,6.2-4.2,10.8c-2.9-2.8-2.9-5.6-0.3-8.8
				C76.7,56.2,79.1,53.4,81.6,50.5z"/>
		</g>
	</g>
	<circle class="st2" cx="78.2" cy="98.4" r="22"/>
	<polygon class="st2" points="68.6,127.4 62.8,112.3 93.6,112.3 87.7,127.4 	"/>
	<g>
		<circle class="st3" cx="77.8" cy="98.4" r="18.8"/>
		<g id="oxvFQD.tif">
			<g>
				<path class="st2" d="M74.7,111.5c-0.3-2.6,0.3-5.2,1.1-7.7c0.1-0.3,0.2-0.6,0.3-0.9c0-0.1,0.1-0.2,0.3-0.1
					c0.9,0.3,1.8,0.3,2.8,0.1c0.2-0.1,0.3,0,0.3,0.2c0.7,2.5,1.7,5,2.9,7.3c0.4,0.8,0.8,1.5,1.2,2.2c0.1,0.2,0.2,0.4,0.3,0.7
					c0.2,0.8-0.2,1.3-1,1.7c-0.9,0.4-1.9,0.3-2.8,0.2c-0.8,0-1.5-0.3-2.2-0.5c-0.5-0.1-1-0.5-1.5-0.7c-0.9-0.5-1.2-1.3-1.5-2.2
					C74.7,111.7,74.7,111.6,74.7,111.5z"/>
				<path class="st2" d="M86.9,110.6c-0.7,0-1.2-0.3-1.8-0.7c-1.2-0.8-2.1-1.9-2.9-3c-0.9-1.3-1.7-2.6-2.4-4
					c-0.1-0.2-0.1-0.3,0.1-0.5c0.8-0.4,1.4-1,1.9-1.8c0.1-0.2,0.2-0.3,0.4-0.1c2.9,1.6,5.9,2.8,9.1,3.7c0.4,0.1,0.8,0.2,1.2,0.4
					c0.8,0.4,0.8,1.1,0.6,1.6c-0.4,1-1.1,1.7-1.9,2.4c-1.1,1-2.4,1.7-3.9,1.9C87.2,110.6,87.1,110.6,86.9,110.6z"/>
				<path class="st2" d="M65.6,107.5c0-0.6,0.2-1,0.5-1.5c0.7-1.2,1.7-2,2.8-2.9c1.4-1.1,2.9-1.9,4.5-2.8c0.2-0.1,0.3,0,0.4,0.1
					c0.4,0.8,1.1,1.5,1.9,1.9c0.2,0.1,0.2,0.2,0.1,0.4c-1.1,2.1-2.1,4.3-2.9,6.5c-0.4,1-0.7,2.1-1,3.1c-0.3,1.1-1,1.6-2,1.2
					c-0.2-0.1-0.5-0.2-0.7-0.3c-1.6-1.1-2.6-2.6-3.3-4.3C65.7,108.5,65.6,108,65.6,107.5z"/>
				<path class="st2" d="M94.6,95.4c0,1.5-0.3,2.8-1,4.2c-0.6,1.2-1.6,1.8-3,2c-1.3,0.2-2.7,0-4-0.2c-1.4-0.2-2.8-0.6-4.2-1.1
					c-0.2-0.1-0.3-0.1-0.2-0.4c0.3-0.9,0.3-1.7,0.1-2.6c-0.1-0.2,0-0.3,0.2-0.4c3.4-1,6.5-2.4,9.6-4.1c0.5-0.3,1-0.5,1.6-0.2
					c0.4,0.2,0.6,0.6,0.7,1C94.6,94.1,94.7,94.7,94.6,95.4z"/>
				<path class="st2" d="M85.2,83c0.6,0,1.2,0.3,1.6,0.7c1.5,1.2,2.5,2.7,3.1,4.6c0.4,1.2-0.1,2.2-0.8,3.2c-0.9,1.1-2.1,2-3.3,2.9
					c-1.1,0.8-2.3,1.4-3.4,2c-0.2,0.1-0.3,0.1-0.4-0.1c-0.4-0.8-1-1.5-1.8-1.9c-0.3-0.1-0.2-0.3-0.1-0.5c0.6-1.1,1.1-2.2,1.6-3.3
					c0.9-2,1.6-4.2,2.2-6.3C84.1,83.3,84.5,83,85.2,83z"/>
				<path class="st2" d="M68.7,86.1c0.9,0,1.6,0.5,2.3,1c1.4,1.1,2.4,2.6,3.3,4c0.5,0.8,1,1.7,1.5,2.6c0.1,0.2,0.1,0.3-0.1,0.4
					c-0.8,0.4-1.5,1-1.9,1.9c-0.1,0.2-0.2,0.3-0.5,0.1c-3-1.7-6.3-2.9-9.6-3.8c-0.6-0.2-1.1-0.4-1.3-1.1c-0.1-0.4,0-0.8,0.2-1.2
					c0.7-1.2,1.7-2.1,2.9-2.9C66.5,86.6,67.5,86.2,68.7,86.1z"/>
				<path class="st2" d="M74.8,81.5c1.5,0,2.9,0.3,4.3,1c1.2,0.6,1.8,1.7,1.9,3c0.1,1.5-0.1,3-0.3,4.5c-0.2,1.2-0.6,2.4-0.9,3.6
					c-0.1,0.2-0.1,0.3-0.4,0.2c-0.9-0.3-1.8-0.3-2.7,0c-0.2,0.1-0.3,0-0.3-0.2c-0.8-2.7-1.8-5.3-3.1-7.7c-0.4-0.7-0.8-1.4-1.1-2
					c-0.5-1-0.2-1.7,0.9-2.1C73.5,81.6,74.1,81.5,74.8,81.5z"/>
				<path class="st2" d="M66.1,95.2c1.7,0,3.4,0.4,5.1,0.8c0.6,0.2,1.3,0.4,1.9,0.5c0.2,0.1,0.3,0.1,0.2,0.4c-0.3,0.9-0.3,1.8,0,2.7
					c0.1,0.2,0,0.3-0.2,0.3c-3.4,1-6.6,2.4-9.6,4.1c-0.2,0.1-0.4,0.2-0.6,0.3c-0.8,0.2-1.3-0.2-1.6-1.1c-0.3-1-0.3-2.1-0.2-3.1
					c0.2-1.2,0.5-2.3,1.1-3.3c0.6-1,1.6-1.4,2.7-1.6C65.3,95.3,65.7,95.2,66.1,95.2z"/>
				<path class="st2" d="M74.1,98.3c0-2,1.6-3.7,3.7-3.7c2,0,3.7,1.6,3.7,3.7c0,2-1.7,3.6-3.7,3.7C75.8,102,74.1,100.4,74.1,98.3z"
					/>
			</g>
		</g>
	</g>
	<path class="st2" d="M96.5,131.4c0,3.9-3.1,7-7,7H66.9c-3.9,0-7-3.1-7-7l0,0c0-3.9,3.1-7,7-7h22.5
		C93.3,124.4,96.5,127.6,96.5,131.4L96.5,131.4z"/>
</g>
<g id="Layer_2">
</g>
</svg>
