<?xml version="1.0" encoding="utf-8"?>
<!-- Generator: Adobe Illustrator 20.1.0, SVG Export Plug-In . SVG Version: 6.00 Build 0)  -->
<svg version="1.1" xmlns="http://www.w3.org/2000/svg" xmlns:xlink="http://www.w3.org/1999/xlink" x="0px" y="0px"
	 viewBox="0 0 155.9 155.9" style="enable-background:new 0 0 155.9 155.9;" xml:space="preserve">
<style type="text/css">
	.st0{fill-rule:evenodd;clip-rule:evenodd;fill:#58646D;}
	.st1{fill:#006531;}
	.st2{fill:#FFFFFF;}
</style>
<g id="Layer_1">
	<path class="st0" d="M148.8,20.2c0-7.2-5.9-13.1-13.1-13.1H20.2C13,7.1,7.1,13,7.1,20.2v115.5c0,7.2,5.9,13.1,13.1,13.1h115.5
		c7.2,0,13.1-5.9,13.1-13.1V20.2z"/>
	<g>
		<path class="st1" d="M97.5,59.5H58.7c-3.7,0-6.7,3-6.7,6.8v38.8c0,3.7,3,6.8,6.7,6.8h8.7v-5.6h-8.7c-0.6,0-1.1-0.5-1.1-1.1V66.3
			c0-0.6,0.5-1.1,1.1-1.1h38.8c0.6,0,1.1,0.5,1.1,1.1v38.8c0,0.6-0.5,1.1-1.1,1.1h-8.7v5.6h8.7c3.7,0,6.8-3,6.8-6.8V66.3
			C104.3,62.5,101.3,59.5,97.5,59.5z"/>
		<rect x="75.9" y="108.2" class="st1" width="4.5" height="17"/>
		<polygon class="st1" points="78.1,135.5 74,128.3 69.8,121 78.1,121 86.5,121 82.3,128.3 		"/>
	</g>
	<g>
		<path class="st2" d="M41.8,27.4h4.2l8.5,13.1h0.1V27.4h3.1V45h-4L45,31.5h0V45h-3.1V27.4z"/>
		<path class="st2" d="M60.7,36.3c0-1.4,0.2-2.7,0.7-3.8c0.5-1.2,1.1-2.1,1.9-3c0.8-0.8,1.8-1.4,2.9-1.9c1.1-0.4,2.4-0.7,3.7-0.7
			c1.4,0,2.6,0.2,3.8,0.6c1.1,0.4,2.1,1,3,1.9c0.8,0.8,1.5,1.8,1.9,2.9c0.5,1.1,0.7,2.4,0.7,3.8c0,1.4-0.2,2.6-0.7,3.8
			c-0.5,1.1-1.1,2.1-1.9,2.9c-0.8,0.8-1.8,1.4-3,1.9c-1.1,0.5-2.4,0.7-3.8,0.7c-1.4,0-2.6-0.2-3.7-0.7c-1.1-0.4-2.1-1.1-2.9-1.9
			c-0.8-0.8-1.5-1.8-1.9-2.9C60.9,38.9,60.7,37.7,60.7,36.3z M63.9,36.1c0,0.9,0.1,1.8,0.4,2.6c0.3,0.8,0.7,1.5,1.2,2.1
			c0.5,0.6,1.2,1,1.9,1.4c0.7,0.3,1.6,0.5,2.5,0.5c0.9,0,1.7-0.2,2.5-0.5c0.7-0.3,1.4-0.8,1.9-1.4c0.5-0.6,0.9-1.3,1.2-2.1
			c0.3-0.8,0.4-1.7,0.4-2.6c0-0.9-0.1-1.7-0.4-2.5c-0.3-0.8-0.7-1.4-1.2-2c-0.5-0.6-1.2-1-1.9-1.3c-0.7-0.3-1.6-0.5-2.5-0.5
			c-0.9,0-1.7,0.2-2.5,0.5c-0.7,0.3-1.4,0.8-1.9,1.3c-0.5,0.6-0.9,1.2-1.2,2C64.1,34.4,63.9,35.2,63.9,36.1z"/>
		<path class="st2" d="M81.4,36.3c0-1.4,0.2-2.7,0.7-3.8c0.5-1.2,1.1-2.1,1.9-3c0.8-0.8,1.8-1.4,2.9-1.9c1.1-0.4,2.4-0.7,3.7-0.7
			c1.4,0,2.6,0.2,3.8,0.6c1.1,0.4,2.1,1,3,1.9c0.8,0.8,1.5,1.8,1.9,2.9c0.5,1.1,0.7,2.4,0.7,3.8c0,1.4-0.2,2.6-0.7,3.8
			c-0.5,1.1-1.1,2.1-1.9,2.9c-0.8,0.8-1.8,1.4-3,1.9c-1.1,0.5-2.4,0.7-3.8,0.7c-1.4,0-2.6-0.2-3.7-0.7c-1.1-0.4-2.1-1.1-2.9-1.9
			c-0.8-0.8-1.5-1.8-1.9-2.9C81.6,38.9,81.4,37.7,81.4,36.3z M84.7,36.1c0,0.9,0.1,1.8,0.4,2.6c0.3,0.8,0.7,1.5,1.2,2.1
			c0.5,0.6,1.2,1,1.9,1.4c0.7,0.3,1.6,0.5,2.5,0.5c0.9,0,1.7-0.2,2.5-0.5c0.7-0.3,1.4-0.8,1.9-1.4c0.5-0.6,0.9-1.3,1.2-2.1
			c0.3-0.8,0.4-1.7,0.4-2.6c0-0.9-0.1-1.7-0.4-2.5c-0.3-0.8-0.7-1.4-1.2-2c-0.5-0.6-1.2-1-1.9-1.3c-0.7-0.3-1.6-0.5-2.5-0.5
			c-0.9,0-1.7,0.2-2.5,0.5c-0.7,0.3-1.4,0.8-1.9,1.3c-0.5,0.6-0.9,1.2-1.2,2C84.8,34.4,84.7,35.2,84.7,36.1z"/>
		<path class="st2" d="M103.1,27.4h6.9c1.2,0,2.3,0.2,3.4,0.5c1.1,0.4,2,0.9,2.9,1.6c0.8,0.7,1.5,1.6,2,2.8c0.5,1.1,0.7,2.4,0.7,3.9
			c0,1.5-0.3,2.8-0.9,3.9c-0.6,1.1-1.3,2-2.2,2.7c-0.9,0.7-1.9,1.3-3,1.6c-1.1,0.4-2.2,0.5-3.2,0.5h-6.6V27.4z M108.6,42.2
			c1,0,1.9-0.1,2.8-0.3c0.9-0.2,1.6-0.6,2.3-1c0.6-0.5,1.2-1.1,1.5-1.8c0.4-0.8,0.6-1.7,0.6-2.8c0-1.1-0.2-2-0.5-2.7
			c-0.3-0.8-0.8-1.4-1.4-1.9c-0.6-0.5-1.3-0.8-2.1-1c-0.8-0.2-1.7-0.3-2.7-0.3h-2.9v12H108.6z"/>
	</g>
</g>
<g id="Layer_2">
</g>
</svg>
