<?xml version="1.0" encoding="utf-8"?>
<!-- Generator: Adobe Illustrator 20.1.0, SVG Export Plug-In . SVG Version: 6.00 Build 0)  -->
<svg version="1.1" xmlns="http://www.w3.org/2000/svg" xmlns:xlink="http://www.w3.org/1999/xlink" x="0px" y="0px"
	 viewBox="0 0 155.9 155.9" style="enable-background:new 0 0 155.9 155.9;" xml:space="preserve">
<style type="text/css">
	.st0{fill-rule:evenodd;clip-rule:evenodd;fill:#94C11A;}
	.st1{fill-rule:evenodd;clip-rule:evenodd;fill:#58646D;}
	.st2{fill-rule:evenodd;clip-rule:evenodd;fill:#1D1D1D;}
	.st3{fill-rule:evenodd;clip-rule:evenodd;fill:#C8985D;}
	.st4{fill-rule:evenodd;clip-rule:evenodd;fill:#B4B3B3;}
	.st5{fill-rule:evenodd;clip-rule:evenodd;fill:#989898;}
	.st6{fill-rule:evenodd;clip-rule:evenodd;fill:#4C4C4C;}
	.st7{fill-rule:evenodd;clip-rule:evenodd;fill:#6E6E6E;}
	.st8{fill-rule:evenodd;clip-rule:evenodd;fill:#9D704A;}
	.st9{fill-rule:evenodd;clip-rule:evenodd;fill:#32383C;}
	.st10{fill-rule:evenodd;clip-rule:evenodd;fill:#627783;}
	.st11{fill-rule:evenodd;clip-rule:evenodd;fill:#40474E;}
	.st12{fill-rule:evenodd;clip-rule:evenodd;fill:#505F6A;}
	.st13{fill-rule:evenodd;clip-rule:evenodd;fill:#6D7C86;}
	.st14{fill-rule:evenodd;clip-rule:evenodd;fill:#596C75;}
	.st15{fill-rule:evenodd;clip-rule:evenodd;fill:#A9B7C2;}
	.st16{fill-rule:evenodd;clip-rule:evenodd;fill:#4B575D;}
	.st17{fill-rule:evenodd;clip-rule:evenodd;fill:#929CA4;}
	.st18{fill-rule:evenodd;clip-rule:evenodd;fill:#282C2E;}
	.st19{fill-rule:evenodd;clip-rule:evenodd;fill:#768691;}
	.st20{fill-rule:evenodd;clip-rule:evenodd;fill:#A9C4D7;}
	.st21{fill-rule:evenodd;clip-rule:evenodd;fill:#BAD2E0;}
	.st22{fill-rule:evenodd;clip-rule:evenodd;fill:#CFDCE2;}
	.st23{fill-rule:evenodd;clip-rule:evenodd;fill:#81949B;}
</style>
<g id="Layer_1">
	<ellipse class="st0" cx="46" cy="116.1" rx="23.6" ry="5.1"/>
	<path class="st1" d="M148.5,20c0-7.2-5.8-13-13-13H21c-7.2,0-13,5.8-13,13v114.5c0,7.2,5.8,13,13,13h114.5c7.2,0,13-5.8,13-13V20z"
		/>
	<g id="YsqYZZ.tif">
		<g>
			<path class="st2" d="M96.3,35.7c2-1.4,3.5-3.4,5.4-5c0.1,0,0-0.2,0-0.3c1,0.2,1.5,1,2.1,1.7c1.5,1.7,2.9,3.5,4.2,5.4
				c0.8,1.1,0.7,2,0,3.1c-1.2,2-2.7,3.8-4,5.7c-0.2,0.3-0.5,0.5-0.6,0.9c-1.6,1.8-3,3.8-4.5,5.6c-0.6,0.8-1.4,1.5-1.8,2.4
				c-0.7,0.3-1,1.1-1.6,1.6c-1.1,0.3-1.7,1.3-2.6,1.9c-2.6-2.6-4.8-5.5-6.8-8.5c1.2-2.5,2.6-4.9,4.2-7.2c-0.2,0-0.4,0.1-0.5,0.2
				c-1.5,1.9-3.3,3.7-5,5.4c-0.2,0.2-0.3,0.4-0.3,0.6c-0.6,0-1.2,0.3-1.8,0.5c-1.7,0.6-3.4,1.5-5.2,1.8c5-6.4,10.2-12.7,15.9-18.7
				c0.1-0.1,0.2-0.3,0.4-0.3c2.1-1,4.1-2.2,6.3-2.8c-0.3,1.1-1.2,1.7-1.7,2.6C97.7,33.6,96.7,34.4,96.3,35.7 M87.8,43.3
				c0.3,0,0.6-0.2,0.9-0.5c1.5-1.3,2.8-2.8,3.8-4.5c0.2-0.3,0.6-0.7,0.3-1.1c-0.4-0.5-0.9,0-1.3,0.1c-0.2,0-0.3,0.2-0.4,0.3
				c-1.6,1.2-2.6,2.8-3.7,4.4c-0.1,0.2-0.2,0.4-0.2,0.6C87.1,43,87.3,43.2,87.8,43.3z"/>
			<path class="st3" d="M121.5,68.8c0.5,0.3,0.7,0.8,1.1,1.1c0,0.1,0,0.1,0,0.2c0,1,0,2.1,0,3.1c0,0.1,0.1,0.1,0.2,0
				c0,0,0-0.1,0-0.1c0.8,0.1,1.6,0.2,1.4-1c1.6,1.6,3,3.5,4.5,5.2c3.7,4.6,7.8,8.8,11.7,13.1c1.5,1.7,2.9,3.4,4.2,5.3
				c0.6,0.8,0.8,1.5,0.4,2.4c-0.8,2-2,3.6-3.7,4.8c-0.5,0.1-0.8-0.3-1-0.7c-0.6-0.7-1.1-1.3-1.6-2c-2-2.4-4-4.9-6-7.3
				c-1.9-2.4-3.8-4.7-5.8-7.1c-2.2-2.6-4.3-5.3-6.6-7.9c-1.3-1.5-2.3-3.2-3.9-4.5c0.1-0.6,0.7-0.2,1-0.6c0.3-0.2,0.2-0.6,0.2-0.9
				c0-1.5,0-1.5,1.4-1.5c0.3,0,0.4,0.2,0.4,0.4c0,0.2-0.1,0.5,0.2,0.6l0,0c0,0.2,0,0.3,0.2,0.4l0,0c0,0.3-0.1,0.6,0.2,0.8l0,0
				c0,0.5,0.2,0.8,0.7,0.8c0.5,0,1.1,0.2,1.4-0.3c0.2-0.4-0.1-0.7-0.5-0.9c-0.4-1-1.3-2-0.2-3.2C121.4,69.1,121.4,68.9,121.5,68.8z"
				/>
			<path class="st3" d="M99.1,52.9c1.5-1.9,2.9-3.9,4.5-5.6c0.6,0.1,0.8,0.7,1.1,1.1c4.6,5.5,9.2,11.1,13.7,16.7
				c0.1,0.1,0.1,0.2,0.2,0.4c-0.2,0-0.4,0-0.5,0.2c-0.1,0-0.3,0-0.4,0c-0.5-0.3-1.1-0.3-1.6,0c-0.1,0-0.1,0-0.2,0
				c-0.6,0.1-0.4,0.5-0.4,0.8c0,1.9,0,3.9,0,5.8c-0.1-0.1-0.3-0.2-0.4-0.3c0,0,0-0.1,0-0.1c0.2-1,0-2-0.6-2.9l0,0
				c0.9-0.2,0.7-0.9,0.7-1.4c-0.1-0.7-0.2-1.6-1.3-1.6c-0.4-0.1-0.7-0.1-1-0.4c-0.3-0.4-0.7-0.2-1.1-0.2c-0.8-0.1-1.6,0.2-2.3-0.2
				c-1.1-0.9-1.9-2.1-2.8-3.2c-2.2-2.5-4.3-5-6.4-7.5C99.8,54,99.2,53.6,99.1,52.9z"/>
			<path class="st3" d="M115.1,71.9c0.1,0.1,0.3,0.2,0.4,0.3c0.1,0.2,0.1,0.4,0.2,0.6c0,0.4,0,0.9,0.6,0.8c1.6,1.3,2.6,3,3.9,4.5
				c2.2,2.6,4.4,5.2,6.6,7.9c1.9,2.4,3.8,4.7,5.8,7.1c2,2.4,4,4.9,6,7.3c0.5,0.7,1.1,1.3,1.6,2c0.3,0.3,0.5,0.7,1,0.7
				c-1.2,1.3-3.1,1.3-4.2-0.1c-5.4-6.6-10.9-13.3-16.3-19.9c-2.6-3.2-5.4-6.1-8.1-9.1c-0.1-0.1-0.2-0.3-0.2-0.4
				C113.4,73.1,114.4,72.8,115.1,71.9z"/>
			<path class="st4" d="M91.3,60.8c-2.2,0.8-4.4,1.9-6.8,0.6c-0.4-0.2-0.8-0.5-1.1-0.8c-1.7-2-3.4-4-5.1-6c-0.4-0.5-0.8-1-0.8-1.7
				c0.5,0,0.9-0.2,1.3-0.4c1.3-0.5,2.7-0.9,4-1.5c1.3-0.6,2.2,0,2.9,0.8c1.4,1.4,2.7,2.9,3.8,4.6C90.5,57.7,91.8,58.9,91.3,60.8z"/>
			<path class="st3" d="M99.1,52.9c0.1,0.7,0.7,1.1,1.2,1.6c2.1,2.5,4.3,5,6.4,7.5c0.9,1.1,1.7,2.3,2.8,3.2c0,0.1,0,0.3,0,0.4
				c-0.1,0-0.1,0-0.2,0c-0.4,0.5-0.4,1.1,0,1.5c0.3,0.3,0.7,0,1-0.3c0.1,0,0.1,0,0.2,0c0.1,0.1,0.1,0.1,0.2,0.2
				c0.5,0.4,1,0.7,1.2,1.4c-0.3,0-0.7,0-1,0c-1.1,0-1.3,0.3-0.7,1.4l0.1,0l0.1,0c0.9,0.5,2-0.1,2.8,0.6l0,0c0,0.3,0,0.7,0,1l0,0
				c-0.2,0.1-0.2,0.2-0.2,0.4c-0.4,0.7-1.1,0.2-1.7,0.4c-0.1-0.1-0.2-0.1-0.3-0.2c-0.8-1-1.6-2-2.4-3c-0.1-0.1-0.1-0.2-0.2-0.2
				l-0.1,0c0-0.1,0-0.1,0-0.2c0-0.1,0-0.2,0-0.2c0.3-0.4,0.3-0.8,0-1.2l0,0c0-0.2,0-0.3-0.2-0.4v0c0-0.2,0-0.3-0.2-0.4l0,0
				c-0.1-0.1-0.1-0.1-0.2-0.2l0,0c-0.1-0.1-0.1-0.1-0.2-0.2l0,0c-0.4-0.8-0.9-0.7-1.6-0.4l0,0c-0.1,0-0.2,0-0.2,0
				c-0.1-0.1-0.2-0.2-0.4-0.2c-2.5-3-5-6.1-7.5-9.1c-0.2-0.3-0.5-0.5-0.6-0.9C97.7,54.4,98.5,53.7,99.1,52.9z"/>
			<path class="st3" d="M116.4,73.6c-0.6,0.1-0.6-0.3-0.6-0.8c0.3-0.3,0.2-0.7,0.2-1c0-2.1,0-4.1,0-6.2c0.1,0,0.1,0,0.2,0
				c0.5,0,1.1,0,1.6,0c0.1,0,0.3,0,0.4,0c0.2,0,0.4,0,0.6,0c0.1,0,0.1,0,0.2,0c0.3,0.5,0.8,0.8,0.9,1.4c-0.1,0-0.2,0-0.3,0
				c-0.1,0-0.1-0.1-0.2-0.1c-0.5,0-1.1,0-1.6,0c-0.6,0-0.7,0.4-0.6,0.8c0.1,0.5-0.3,1.4,0.5,1.5c1.8,0.2,2.6,0.3,2.5-1.9
				c0.5,0.3,0.7,0.9,1.2,1.1c0,0.2,0.1,0.3,0.1,0.5c0,0.1,0,0.3-0.1,0.4c-1.1,1.1-0.2,2.1,0.2,3.2c-0.1,0.3,0.2,0.7-0.3,0.8
				c-0.5,0.1-1,0.1-1.3-0.4l0,0c0-0.3,0.1-0.6-0.2-0.8l0,0c0-0.2,0-0.3-0.2-0.4l0,0c0-0.2,0-0.5-0.2-0.6c0-0.2-0.1-0.4-0.4-0.4
				c-1.4-0.5-1.6-0.3-1.6,1c0,0.5,0,0.9,0,1.4C117.1,73.3,116.4,72.9,116.4,73.6z"/>
			<path class="st5" d="M91.3,60.8c0.5-1.9-0.8-3.1-1.7-4.5c-1.1-1.6-2.4-3.2-3.8-4.6C85,51,84.1,50.4,82.8,51c-1.3,0.6-2.7,1-4,1.5
				c-0.4,0.2-0.8,0.4-1.3,0.4c0-0.4-0.2-0.8,0.1-1.2c1.8-0.3,3.5-1.2,5.2-1.8c0.6-0.2,1.2-0.5,1.8-0.5c0.4,0.5,1,0.7,1.6,1
				c2.1,3,4.3,5.9,6.8,8.5c0,0.4,0,0.8,0.1,1.2C92.6,60.5,92,60.7,91.3,60.8z"/>
			<path class="st6" d="M96.3,35.7c0.4-1.3,1.4-2.1,2.1-3.2c0.5-0.9,1.5-1.5,1.7-2.6c0.6,0,1.1,0.1,1.6,0.5c0,0.1,0,0.2,0,0.3
				C99.8,32.3,98.4,34.3,96.3,35.7L96.3,35.7z"/>
			<path class="st3" d="M111.3,72.2c0.5-0.2,1.3,0.4,1.7-0.4c0.2-0.1,0.2-0.2,0.2-0.4l0,0c0.7-0.3,0.2-0.7,0-1l0,0
				c0-0.2,0-0.4,0-0.6l0,0c0.7,0.3,0.7,1.3,1.6,1.4c0,0.3,0.1,0.5,0.4,0.7c0,0,0,0.1,0,0.1c-0.7,0.8-1.7,1.2-2.6,1.6
				c-0.1-0.1-0.2-0.1-0.3-0.2C111.9,72.9,111.6,72.5,111.3,72.2z"/>
			<path class="st3" d="M108.3,68.6c-0.6-0.2-0.7-1-1.3-1.1c0-0.4-0.2-0.5-0.5-0.7c-0.3-0.3-0.5-0.7-0.8-1c0.1-0.1,0.1-0.1,0.2-0.2
				l0,0c0.5,0.1,1.1,0.3,1.6,0.4l0,0c0.1,0.1,0.1,0.1,0.2,0.2l0,0c0.1,0.1,0.1,0.1,0.2,0.2l0,0c0,0.2,0,0.3,0.2,0.4v0
				c0,0.2,0,0.3,0.2,0.4l0,0c0,0.4,0,0.8,0,1.2C108.3,68.4,108.3,68.5,108.3,68.6z"/>
			<path class="st3" d="M123,70.5c0.4,0.4,0.6,0.9,1.1,1.1c0,0.2,0.1,0.3,0.1,0.5c0.2,1.2-0.7,1.1-1.4,1
				C122.9,72.3,122.5,71.4,123,70.5z"/>
			<path class="st7" d="M93.1,60c0-0.4,0-0.8-0.1-1.2c0.9-0.6,1.5-1.6,2.6-1.9C94.9,58,94.1,59.1,93.1,60z"/>
			<path class="st3" d="M118.8,65.5c-0.2,0-0.4,0-0.6,0c0.1-0.2,0.3-0.2,0.5-0.2C118.7,65.4,118.7,65.5,118.8,65.5z"/>
			<path class="st3" d="M108.4,68.7c0.1,0.1,0.1,0.2,0.2,0.2C108.5,68.9,108.4,68.8,108.4,68.7z"/>
			<path class="st8" d="M87.8,43.3c-0.5,0-0.7-0.2-0.6-0.7c0-0.2,0.1-0.4,0.2-0.6c1-1.6,2.1-3.2,3.7-4.4c0.1-0.1,0.3-0.2,0.4-0.3
				c0.4-0.1,0.9-0.5,1.3-0.1c0.3,0.4-0.1,0.8-0.3,1.1c-1,1.7-2.3,3.2-3.8,4.5C88.4,43.1,88.1,43.2,87.8,43.3z"/>
			<path class="st6" d="M86.2,50.4c-0.5-0.3-1.1-0.5-1.6-1c0-0.2,0.1-0.4,0.3-0.6c1.7-1.7,3.4-3.5,5-5.4c0.1-0.1,0.3-0.2,0.5-0.2
				C88.9,45.5,87.5,47.9,86.2,50.4z"/>
			<path class="st3" d="M120,72.7c0.3,0.5,0.8,0.5,1.3,0.4c0.4-0.1,0.2-0.5,0.3-0.8c0.4,0.2,0.7,0.6,0.5,0.9
				c-0.3,0.5-0.9,0.2-1.4,0.3C120.1,73.6,119.9,73.3,120,72.7z"/>
			<path class="st3" d="M117.3,73c0-0.5,0-0.9,0-1.4c0-1.4,0.3-1.5,1.6-1c-1.4,0-1.4,0-1.4,1.5C117.6,72.4,117.7,72.7,117.3,73z"/>
			<path class="st3" d="M123,70.5c-0.4,0.8-0.1,1.8-0.2,2.6c0,0,0,0.1,0,0.1c0,0.1-0.2,0.1-0.2,0c0-1,0-2.1,0-3.1
				C122.8,70.2,123,70.3,123,70.5z"/>
			<path class="st3" d="M119.8,71.9c0.3,0.2,0.2,0.5,0.2,0.8C119.7,72.5,119.8,72.2,119.8,71.9z"/>
			<path class="st3" d="M119.4,70.9c0.2,0.2,0.2,0.4,0.2,0.6C119.3,71.4,119.4,71.2,119.4,70.9z"/>
			<path class="st3" d="M119.6,71.5c0.2,0.1,0.2,0.2,0.2,0.4C119.6,71.9,119.6,71.7,119.6,71.5z"/>
			<path class="st3" d="M114.7,71.2c-0.9-0.1-0.9-1.1-1.6-1.4c-0.2-0.4-0.4-0.8-0.6-1.1c0.5-0.2,0.9-0.4,0.8-1
				c0-0.4-0.2-0.8-0.6-0.8c-0.7-0.1-1.4-0.3-2,0.1c-0.1-0.1-0.1-0.1-0.2-0.2c-0.1-0.4-0.3-0.7-0.4-1.1c0.9-0.2,1.9-0.1,2.8-0.1
				c0.3,0.2,0.7,0.3,1,0.4c1,0.8,0.9,1.9,0.6,3l0,0c-0.3,0.2-0.5,0.4-0.2,0.7C114.8,70.1,114.8,70.6,114.7,71.2z"/>
			<path class="st3" d="M116,65.5c0,2.1,0,4.1,0,6.2c0,0.4,0.1,0.7-0.2,1c-0.1-0.2-0.1-0.4-0.2-0.6c0-1.9,0-3.9,0-5.8
				C115.6,66.1,115.4,65.6,116,65.5z"/>
			<path class="st3" d="M114.5,68.9c0.4-1.1,0.4-2.2-0.6-3c1.1,0,1.2,0.9,1.3,1.6C115.3,68.1,115.4,68.8,114.5,68.9z"/>
			<path class="st3" d="M114.7,71.2c0-0.6,0.1-1.1-0.4-1.5c-0.3-0.3-0.1-0.5,0.2-0.7c0.5,0.9,0.7,1.8,0.6,2.9
				C114.9,71.7,114.8,71.4,114.7,71.2z"/>
			<path class="st3" d="M112.9,65.6c-1,0-1.9-0.1-2.8,0.1c-0.2,0-0.4-0.1-0.6-0.1c0-0.1,0-0.3,0-0.4c0.8,0.4,1.6,0.1,2.3,0.2
				C112.2,65.4,112.6,65.2,112.9,65.6z"/>
			<path class="st3" d="M117.8,65.5c-0.5,0-1.1,0-1.6,0C116.7,65.2,117.2,65.2,117.8,65.5z"/>
			<path class="st3" d="M112.5,68.6c0.2,0.4,0.4,0.8,0.6,1.1c0,0,0,0,0,0c-0.9,0-1.9,0-2.8,0l-0.1,0l-0.1,0
				c-0.2-0.9,0.1-1.3,1.1-1.2c0.2,0,0.5,0,0.7,0C112.2,68.6,112.3,68.6,112.5,68.6z"/>
			<path class="st3" d="M112.5,68.6c-0.2,0-0.4-0.1-0.6-0.1c0-0.1,0-0.1,0-0.2c-0.1-0.7-0.7-1-1.2-1.4c0.6-0.4,1.3-0.2,2-0.1
				c0.4,0,0.5,0.5,0.6,0.8C113.4,68.2,113,68.5,112.5,68.6z"/>
			<path class="st3" d="M109.5,65.5c0.2,0,0.4,0.1,0.6,0.1c0.1,0.4,0.3,0.7,0.4,1.1c-0.1,0-0.1,0-0.2,0c-1.1,0.2-1.1-0.5-1-1.2
				C109.4,65.5,109.5,65.5,109.5,65.5z"/>
			<path class="st3" d="M110.3,69.7c0.9,0,1.9,0,2.8,0c0,0.2,0,0.4,0,0.6C112.3,69.6,111.2,70.2,110.3,69.7z"/>
			<path class="st3" d="M109.4,65.5c-0.1,0.7-0.1,1.4,1,1.2c-0.3,0.3-0.7,0.6-1,0.3C109,66.6,109,66,109.4,65.5z"/>
			<path class="st3" d="M111.9,68.3c0,0.1,0,0.1,0,0.2c-0.2,0-0.5,0.1-0.7,0c-1-0.1-1.3,0.2-1.1,1.2c-0.5-1.1-0.4-1.4,0.7-1.4
				C111.3,68.3,111.6,68.3,111.9,68.3z"/>
			<path class="st3" d="M107.5,65.9c-0.5-0.1-1.1-0.3-1.6-0.4C106.6,65.2,107.2,65.1,107.5,65.9z"/>
			<path class="st3" d="M113.2,70.3c0.2,0.3,0.7,0.7,0,1C113.2,71,113.2,70.7,113.2,70.3z"/>
			<path class="st3" d="M108.3,68.4c0-0.4,0-0.8,0-1.2C108.7,67.6,108.6,68,108.3,68.4z"/>
			<path class="st3" d="M113.2,71.4c0,0.2,0,0.3-0.2,0.4C113,71.6,113,71.4,113.2,71.4z"/>
			<path class="st3" d="M108.3,67.1c-0.2-0.1-0.2-0.2-0.2-0.4C108.3,66.8,108.3,67,108.3,67.1z"/>
			<path class="st3" d="M108.1,66.7c-0.2-0.1-0.2-0.2-0.2-0.4C108.1,66.4,108.1,66.6,108.1,66.7z"/>
			<path class="st3" d="M107.9,66.3c-0.1-0.1-0.1-0.1-0.2-0.2C107.8,66.2,107.9,66.3,107.9,66.3z"/>
			<path class="st3" d="M107.7,66.1c-0.1-0.1-0.1-0.1-0.2-0.2C107.6,66,107.7,66.1,107.7,66.1z"/>
			<path class="st3" d="M105.7,65.7c0-0.1,0-0.1,0-0.2c0.1,0,0.2,0,0.2,0C105.9,65.6,105.8,65.7,105.7,65.7z"/>
			<path class="st3" d="M119.4,66.8c0.1,0,0.1,0.1,0.2,0.1c0.5,1.6,0.2,2-1.3,1.8c-0.7-0.1-0.7-0.4-0.7-0.9c0-0.5,0.2-0.7,0.7-0.7
				C118.6,67.1,119.2,67.4,119.4,66.8z"/>
			<path class="st3" d="M119.4,66.8c-0.2,0.6-0.7,0.3-1.1,0.4c-0.5,0-0.7,0.1-0.7,0.7c0,0.5,0.1,0.9,0.7,0.9
				c1.5,0.1,1.8-0.2,1.3-1.8c0.1,0,0.2,0,0.3,0c0.2,0,0.3,0.1,0.3,0.3c0.1,2.2-0.7,2-2.5,1.9c-0.8-0.1-0.4-1-0.5-1.5
				c-0.1-0.4,0-0.8,0.6-0.8C118.3,66.7,118.8,66.8,119.4,66.8z"/>
		</g>
	</g>
	<g id="nEV6Je.tif">
		<g>
			<path class="st9" d="M44.1,108.5c1.5,0,1.8-0.7,1.1-2.5c0.1-0.6,0.2-1.3,0.6-1.8c0.3-0.1,0.5-0.3,0.3-0.7l0,0
				c0.4-0.4,1.2-0.7,0.7-1.5c0.7-2.1,1.7-4.1,2.7-6c0.4-0.2,0.5-0.6,0.3-1c0.3-0.7,0.6-1.4,0.9-2c0.2-0.6,1.5-0.4,1.3-1.1
				c-0.4-1.8,1.3-2.8,1.3-4.4c0-0.2,0.2-0.3,0.5-0.3c0.8,0.2,0.7-0.3,0.6-0.7c-0.2-0.5-0.3-1.2,0.1-1.3c1.6-0.5,0.6-1.5,0.7-2.3
				c0.2-0.4,0.2-0.8,0.6-1.1c0.1,0.2,0.3,0.6,0.4,0.6c0.4,0,0.4-0.4,0.4-0.7c-0.1-0.3-0.2-0.6-0.3-1c0.4-0.9,0.8-1.8,1.1-2.7
				c0-0.1,0.1-0.2,0.1-0.3l0,0c1.1-0.3,1.5-0.9,1.1-2c0.7-0.8,1.2-1.6,1.3-2.6c0.8,0.4,1.1,0,1.2-0.7c0.1-0.6,0.1-1.2,0.8-1.5
				c0.5-0.2,0.8-0.8,1.4-0.8c-0.1,0.4-0.3,0.8-0.4,1.2c-0.3,0.6-0.8,1.1-0.9,1.8c-0.1,0-0.2,0.1-0.2,0.1c-0.2,0.5-0.5,1.1-0.7,1.6
				c-0.4,0.4-0.7,0.7-0.6,1.3c-0.2,0.5-0.4,0.9-0.6,1.4c-0.4,0.3-0.7,0.6-0.6,1.1C59.3,79,58.8,79.4,59,80l0,0
				c-0.6-0.3-0.5,0.1-0.5,0.5c-0.2,0.6-0.5,1.1-0.7,1.7c-0.4,0.3-0.7,0.6-0.6,1.1c-0.2,0.4-0.4,0.9-0.6,1.3C56.2,85,56,85.4,56,85.9
				c-0.2,0.3-0.3,0.7-0.5,1c-0.4,0.6-0.8,1.2-0.9,2c-0.1,0.2-0.2,0.4-0.3,0.6c-0.8,1.4-1.5,2.9-1.9,4.5c-0.3,0.2-0.4,0.5-0.4,0.8
				c-0.2,0.1-0.3,0.3-0.2,0.5c-0.5,0.6-0.7,1.3-1,2c-0.9,1.2-1.2,2.7-1.9,3.9c-0.4,0.7-0.9,1.3-0.5,2.2c-0.4,0.4-0.5,0.9-0.7,1.3
				c-0.5,0.3-0.9,0.6-0.7,1.2c-0.2,0.5-0.3,0.9-0.5,1.4c-0.6,0.5-0.8,1.2-0.9,2c-0.2,0.3-0.3,0.7-0.5,1"/>
			<path class="st9" d="M75.5,81c0.3-1.6,1.1-3.2,1-4.9c0-1.3-0.1-2.5-1.1-3.5c0-0.1-0.1-0.2-0.1-0.2c-0.1-0.1-0.1-0.3-0.2-0.4
				c-0.1-0.1-0.2-0.2-0.3-0.2c-0.1,0-0.3-0.1-0.4-0.1c-0.1-0.3-0.2-0.6-0.6-0.6c-0.1-0.1-0.2-0.2-0.3-0.3c-0.1,0-0.2-0.1-0.3-0.1
				c-0.3,0.1-0.7,0.2-0.9-0.1c-0.1-0.6,0.1-0.8,0.7-0.7c0.4,0.1,0.7,0.3,1.1,0.2c0.2,0.1,0.3,0.3,0.5,0.4c0.6,0.9,1.8,0.9,2.6,0
				c0,0.1,0.1,0.1,0.1,0.2c0.1,0.2,0.1,0.4,0.4,0.4c0.3-0.1,0.2-0.3,0-0.4c0-0.1-0.1-0.2-0.1-0.3c0.3-0.1,0.5-0.3,0.6-0.5l0,0
				c0.1,0,0.2-0.1,0.4-0.1c0.7,0.6,1,1.2,0.4,2c-0.4,0.5-0.5,1-0.4,1.7c0.5-0.5,0.8-0.9,0.9-1.5c0.8-0.2,0.5,0.7,0.9,1
				c-0.1,0.2-0.1,0.5-0.3,0.7c-0.1,0.2-0.5,0.3-0.3,0.6c0.2,0.2,0.4,0.2,0.7,0c0,0.4,0,0.8,0,1.1c-0.3,0.2-0.3,0.4-0.3,0.7
				c-0.3,0.2-0.8,0.3-0.5,0.8c0.3,0.6-0.1,1-0.4,1.4c-0.3,0.4-0.7,0.6-1.1,0.9c-0.7,0.6,1,0.2,0.3,0.8c0,0-0.1,0.1-0.1,0.1
				C77.4,80.1,76.3,80.1,75.5,81z"/>
			<path class="st10" d="M45.3,110.9c0.5-0.2,1.1-0.5,1.6-0.5c1.3,0.1,1.6-0.5,1.7-1.6c-0.1-0.2-0.1-0.4-0.2-0.6
				c-0.1-0.1-0.1-0.3-0.2-0.4c1,0.1,1.3-0.5,1.5-1.4c0.1-0.4-0.1-0.7-0.4-0.4c-0.8,0.5-1.5,0.1-2.2,0.1c-0.1-0.6,0.3-1,0.7-1.2
				c0.4,0.7,1,0.5,1.5,0.3c0.7-0.3,1.5-0.5,1.3-1.6c-0.8,0-1.5,0.6-2.2,0c-0.4-0.9,0.1-1.5,0.5-2.2c0.1,0.1,0.1,0.2,0.2,0.3
				c0.1,0.3-0.2,0.8,0.2,1c1,0.5,2.4-0.7,2.4-1.9c0-0.3,0-0.6,0-0.9c0.8-0.2,1.2-0.6,1.2-1.5c-0.5,0.1-1,0.1-1.5,0.2
				c-0.2-0.3-0.2-0.6,0-0.9c0.4-0.2,0.9-0.4,1.3-0.4c1,0,1.2-0.6,1.3-1.4c-0.7-0.1-1.5,0.6-2-0.3c0.1-0.1,0.1-0.2,0.2-0.4
				c0.7-0.2,1.5-0.4,2.2-0.5c0.5-0.1,0.7-0.6,0.7-1c0-0.5-0.5-0.5-0.8-0.3c0-0.7,0.4-0.9,1.1-0.8c0.1,0.4,0.4,0.5,0.7,0.4
				c-0.5,1.9-1.4,3.6-2.3,5.4c-1,1.9-1.6,4-2.5,6c-1,2.2-1.6,4.5-2.9,6.5"/>
			<path class="st11" d="M78.1,69.8c-0.1,0.3-0.3,0.5-0.6,0.5c-0.1,0.1-0.2,0.1-0.3,0.2c-0.8,0.8-2,0.8-2.6,0
				c0.4,0.1,0.7,0.1,1.2,0.2c-0.1-0.7-0.9-0.4-1.1-0.8c0-0.2,0-0.3,0-0.5c0,0-0.1,0-0.2-0.1c0,0.1,0,0.2,0,0.4
				c-0.2,0.1-0.4,0.2-0.4,0.4c-0.4,0.1-0.7-0.1-1.1-0.2c-0.6-0.1-0.8,0.1-0.7,0.7c-1.1-0.5-2.3-0.6-3.3,0.1c-0.5,0.4-1.1,0-1.5,0.4
				c-0.1-0.2-0.2-0.4-0.3-0.6c1.6-0.9,3.4-1.1,5.1-1.3c1.2,0,1.2-0.6,0.8-1.4c0.7-0.2-0.2-1.1,0.5-1.2c0.5,0,1,0.2,1.4,0.6
				c0.2,0.2,0.2,0.5,0.3,0.7c0.1,0.1,0.2,0.6,0.4,0.2c0.5-0.7,0.9,0.2,1.3,0.1c0.4,0.4,0.4,0.9,0.3,1.4C77.4,70.1,77.7,70,78.1,69.8
				z"/>
			<path class="st12" d="M78.4,85.9c-0.9,0.8-3.4,0.7-4.1-0.2c-0.7-0.8-0.4-1.7,0.2-2.5c0.4,0.7,1,0.5,1.5,0.2
				c0.6,0.4,0.7,0.4,1-0.6c0.6-0.2,0.7-0.7,0.8-1.2c0.4,0,0.4,0.4,0.5,0.6c-0.2,0.4-0.4,0.9-0.5,1.3c0.1,0.1,0.2,0.2,0.2,0.3
				c0-0.1,0-0.2,0.1-0.3c0.2-0.1,0.4-0.2,0.6-0.3c0.4,0.7-0.2,1.1-0.5,1.4C77.7,85.3,78,85.6,78.4,85.9z"/>
			<path class="st13" d="M60.3,83.3c-0.9,2.5-1.9,4.9-3.2,7.2c-0.7,0.1-1.4,0.3-2.1,0.4c-0.7,0.1-0.7-0.3-0.3-0.8
				c0.8,0,1.5-0.6,2.3-0.7c0.3,0,0.5-0.6,0.3-0.9c-0.2-0.4-0.5-0.1-0.8-0.1c-0.1-0.2-0.2-0.4-0.3-0.7c0.3-0.3,0.6-0.6,1.1-0.6
				c0.9,0.1,1-0.5,1.1-1.2c-0.6-0.2-1.2,0.2-1.8-0.3c0.1-0.2,0.1-0.3,0.2-0.5c1-0.5,2.5-0.3,2.8-1.9C59.9,83.2,60.1,83.3,60.3,83.3z
				"/>
			<path class="st14" d="M61.9,73.1c0.1,0,0.2-0.1,0.2-0.1c0.8,0.2,1.6-0.5,2.5-0.1c-0.1,0.6,0,1,0.7,0.8c-1.1,2-2.3,3.9-3.1,6
				C62,80.4,61.4,81,61,81.6c-0.1-0.2-0.2-0.4-0.2-0.5c0-0.1-0.1-0.2-0.1-0.3c-0.2-0.4,0.2-0.6,0.2-0.9c0.6-0.3,1-0.7,1-1.4
				c0-0.3,0-0.6,0-1c0.7-0.2,1.2-0.6,1.1-1.4c0-0.3,0-0.6,0-0.8c0.6-0.3,1.4-0.5,1.5-1.4C63.5,73.7,62.4,74.2,61.9,73.1z"/>
			<path class="st11" d="M63.5,70c-0.6,0-0.8,0.6-1.4,0.8c-0.1-0.1-0.1-0.3-0.2-0.4c0.9-1.5,2.2-2.5,3.6-3.5c0.6-0.4,1.3-0.4,2-0.6
				c0.1,0.8,0,1.7,1,2.1c0.5,1.4-0.5,0.9-1.1,1c-0.1-0.1-0.3-0.3-0.4-0.4c-0.1-0.4,0-0.9-0.5-1.2c0.3-0.2,0.7-0.2,0.6-0.8
				c-0.7,0.2-1.3,0.5-1.6,1.1c-0.3,0.3-0.7,0.5-1,0.8C63.7,68.8,63.1,68.8,63.5,70L63.5,70z"/>
			<path class="st15" d="M78.1,69.8c-0.4,0.2-0.7,0.3-0.6-0.4c0.1-0.5,0.1-1-0.3-1.4c0-0.2,0.1-0.4,0.1-0.7c1,0.2,1.7,0.7,2.1,1.6
				c0.3,0.7,0.9,1,1.3,1.6c0.3,0.5,0.8,0.9,0.5,1.6c-0.3,0.2-0.5,0.4-0.8,0.6c-0.4-0.2,0-1.1-0.9-1c-0.2-0.1-0.3-0.1-0.5-0.2
				c0.6-0.8,0.2-1.5-0.4-2C78.3,69.4,78.1,69.5,78.1,69.8L78.1,69.8z"/>
			<path class="st16" d="M55.3,82.8c0,0.8,0.9,1.9-0.7,2.3c-0.4,0.1-0.3,0.8-0.1,1.3c0.2,0.4,0.2,0.9-0.6,0.7
				c-0.2-0.1-0.5,0-0.5,0.3c0,1.6-1.7,2.6-1.3,4.4c0.2,0.7-1.1,0.5-1.3,1.1c0.1-1.3,0.9-2.4,1.4-3.6C53.2,87.2,54.3,85,55.3,82.8z"
				/>
			<path class="st15" d="M54.6,90c-0.4,0.5-0.3,0.8,0.3,0.8c0.7-0.1,1.4-0.2,2.1-0.4c0.1,0.3,0,0.5-0.3,0.7c-1-0.1-0.7,1.2-1.5,1.3
				c-0.7-0.1-1,0.1-1.1,0.8c-0.5,0.5-1.3,0.3-1.8,0.8c0.4-1.6,1.1-3.1,1.9-4.5C54.5,89.7,54.6,89.9,54.6,90z"/>
			<path class="st17" d="M77.2,67.4c0,0.2-0.1,0.4-0.1,0.7c-0.4,0-0.8-0.9-1.3-0.1c-0.2,0.3-0.3-0.1-0.4-0.2
				c-0.1-0.2-0.2-0.5-0.3-0.7c-0.4-0.4-0.9-0.6-1.4-0.6c-0.7,0.1,0.2,1-0.5,1.2c0-0.1-0.1-0.1-0.2-0.2c-0.1-0.2-0.2-0.3-0.3-0.5
				c0-1-0.8-0.6-1.3-0.9c0.1-0.3,0.4-0.5,0.2-0.8C73.6,65.5,75.8,65.6,77.2,67.4z"/>
			<path class="st18" d="M76,83.5c-0.6,0.2-1.1,0.4-1.5-0.2c0.1-0.5,0.3-0.9,0.6-1.3c0.8,1,1.3,0.3,1.9-0.2
				c-0.6-0.1-1.2,0.2-1.7-0.3c0.1-0.1,0.1-0.3,0.2-0.4c0.8-0.8,1.9-0.9,3-1.1c-0.1,0.4-0.2,0.8-0.7,1c-0.6,0.3-0.3,0.6,0,0.8
				c-0.1,0.5-0.2,1-0.8,1.2C76.6,83,76.2,83.1,76,83.5z"/>
			<path class="st19" d="M78.4,85.9c-0.4-0.3-0.7-0.6-0.2-1.2c0.3-0.3,0.9-0.8,0.5-1.4c0.1-0.8,0.6-1.4,0.5-2.3
				c-0.1-0.3-0.3-0.6,0.1-0.8c0.1,0,0.2,0,0.3-0.1l0,0.1c0.2,0.4,0.2,0.8,0.8,0.9c-0.5,1.4-0.9,2.8-1.7,4.1c0,0-0.1,0-0.1-0.1
				c0,0,0.1,0,0.1,0.1C78.8,85.6,78.7,85.8,78.4,85.9z"/>
			<path class="st16" d="M65.4,73.7c-0.7,0.2-0.9-0.2-0.7-0.8c0.4-0.1,0.6-0.4,0.8-0.7c0.2-0.1,0.4-0.2,0.4-0.4
				c0.4-0.6,0.7-1.1,1.4-1.4l0,0.1c0.1,0.2,0.2,0.4,0.3,0.6c-0.2,0.7-0.8,1.1-1.4,1.5c0,0.1-0.1,0.2-0.1,0.3
				C66.1,73.2,65.8,73.5,65.4,73.7z"/>
			<path class="st11" d="M45.2,106c0.7,1.8,0.4,2.5-1.1,2.5C44.1,107.5,44.8,106.8,45.2,106z"/>
			<path class="st16" d="M68.6,68.4c-1-0.3-0.9-1.3-1-2.1c0.1-0.1,0.3-0.2,0.4-0.2c0,0,0.1,0.1,0.1,0c0.3,0.3,0.1,0.9,0.7,1.1
				c0,0.7,1,0.6,0.9,1.3C69.3,68.6,69,68.1,68.6,68.4z"/>
			<path class="st12" d="M62,70.4c0.1,0.1,0.1,0.3,0.2,0.4c-0.7,0.3-0.7,0.9-0.8,1.5c-0.2,0.7-0.5,1.1-1.2,0.7
				C60.8,72.1,61.2,71.1,62,70.4z"/>
			<path class="st17" d="M80.3,72.9c0.3-0.2,0.5-0.4,0.8-0.6c0.2,0.7,0.4,1.3,0.7,2c-0.5,0.4-0.8-0.6-1.3-0.1
				c-0.2,0.1-0.5,0.2-0.7,0c-0.2-0.3,0.1-0.4,0.3-0.6C80.2,73.3,80.2,73.1,80.3,72.9z"/>
			<path class="st10" d="M81.7,75.4c0,0.7-0.1,1.4-0.1,2.2c-0.2,0.2-0.5,0.4-0.8,0.2c-0.1-0.3-0.1-0.5-0.2-0.8l0,0
				c0.4-0.4,0.3-0.8,0.1-1.2c0-0.1-0.1-0.1-0.1-0.2c0.2-0.1,0.4-0.3,0.6-0.4c0.1,0,0.2,0,0.3,0C81.5,75.3,81.6,75.3,81.7,75.4z"/>
			<path class="st13" d="M79.7,80.3l0-0.1c0.1-0.3,0.4-0.6,0.2-1l0,0C80,79.1,80,79,80,78.8l0,0c0.5-0.2,0.8-0.9,1.5-0.6
				c-0.2,0.7-0.4,1.3-0.6,2C80.5,80.2,80.1,80.3,79.7,80.3z"/>
			<path class="st19" d="M71.6,65.2c0.2,0.3-0.1,0.6-0.2,0.8c-0.2,0.1-0.4,0.2-0.5,0.4c-0.7,0.6-1.2,0-1.7-0.3
				c0.3-0.2,0.8-0.2,0.9-0.6C70.6,65.5,71.1,65.3,71.6,65.2z"/>
			<path class="st15" d="M81.2,75.1c-0.2,0.1-0.4,0.3-0.6,0.4c0-0.1-0.1-0.2-0.2-0.3c0-0.4,0-0.8,0-1.1c0.5-0.5,0.8,0.5,1.3,0.1
				c0.1,0.4,0.4,0.8,0,1.2c-0.1-0.1-0.1-0.1-0.2-0.2c-0.1-0.1-0.1-0.2-0.2-0.3C81.2,74.9,81.2,75,81.2,75.1z"/>
			<path class="st14" d="M55.4,92.4c0.7-0.1,0.5-1.4,1.5-1.3c-0.1,0.6,0,1.3-0.7,1.7C55.7,92.9,55.5,92.8,55.4,92.4z"/>
			<path class="st16" d="M58.8,75.6c0.4,1.1,0,1.8-1.1,2C58.1,77,58.6,76.3,58.8,75.6z"/>
			<path class="st9" d="M75.3,81.4c0.5,0.5,1.1,0.2,1.7,0.3c-0.6,0.5-1.1,1.2-1.9,0.2C75,81.7,75.1,81.5,75.3,81.4z"/>
			<path class="st16" d="M70.1,65.6C70,66,69.5,66,69.2,66.2c-0.4-0.1-0.7-0.4-1.1-0.1L68,66.1C68.5,65.1,69.3,65.6,70.1,65.6z"/>
			<path class="st15" d="M81.4,78.3c-0.7-0.3-1,0.4-1.5,0.6c-0.2-0.5,0.3-0.7,0.4-1c0.1,0,0.2-0.1,0.4-0.1c0.3,0.2,0.6,0,0.8-0.2
				C81.8,77.8,81.7,78.1,81.4,78.3z"/>
			<path class="st11" d="M56.4,80.7c0.1,0.3,0.3,0.6,0.3,1c0,0.3,0,0.7-0.4,0.7c-0.1,0-0.3-0.4-0.4-0.6C56.1,81.4,56.2,81,56.4,80.7
				z"/>
			<path class="st12" d="M46.9,102c0.5,0.8-0.3,1.1-0.7,1.5C46.3,103,46.5,102.4,46.9,102z"/>
			<path class="st15" d="M79.7,80.3c0.4,0,0.8,0,1.1-0.1c0.1,0.4,0,0.7-0.4,1C79.9,81.1,79.9,80.6,79.7,80.3z"/>
			<path class="st12" d="M60.3,83.3c-0.2,0-0.4,0-0.7,0l0,0c-0.1-0.2-0.1-0.3-0.2-0.5c0-0.1,0.1-0.3,0.1-0.4c0.3,0,0.5,0,0.8,0
				c0.1,0,0.3,0,0.4,0.1C60.8,82.8,60.5,83,60.3,83.3z"/>
			<path class="st12" d="M60.8,81.1c0.1,0.2,0.2,0.4,0.2,0.5c0,0.3,0.1,0.6-0.2,0.8c-0.1,0-0.3-0.1-0.4-0.1
				C60.2,81.8,60.5,81.5,60.8,81.1z"/>
			<path class="st16" d="M50,95c0.1,0.4,0.1,0.8-0.3,1C49.7,95.7,49.6,95.3,50,95z"/>
			<path class="st11" d="M73.8,71c0.4-0.1,0.5,0.3,0.6,0.6C74,71.6,73.9,71.3,73.8,71z"/>
			<path class="st12" d="M46.2,103.6c0.1,0.3,0,0.5-0.3,0.7C45.9,103.9,46,103.7,46.2,103.6z"/>
			<path class="st14" d="M66,72.7c0-0.1,0.1-0.2,0.1-0.3C66.1,72.6,66,72.6,66,72.7z"/>
			<path class="st11" d="M73.3,70.7c0.1,0,0.2,0.1,0.3,0.1C73.5,70.7,73.4,70.7,73.3,70.7z"/>
			<path class="st16" d="M57.7,77.6c0,0.1-0.1,0.2-0.1,0.3C57.4,77.8,57.5,77.7,57.7,77.6z"/>
			<path class="st11" d="M75.3,72.3c0.1,0.1,0.1,0.1,0.1,0.2C75.4,72.5,75.3,72.5,75.3,72.3C75.3,72.4,75.3,72.4,75.3,72.3z"/>
			<path class="st11" d="M74.9,71.7c0.1,0.1,0.2,0.2,0.3,0.2C75.1,71.9,75,71.8,74.9,71.7z"/>
			<path class="st15" d="M47,106.1c0.7,0.1,1.5,0.5,2.2-0.1c0.3-0.2,0.5,0.1,0.4,0.4c-0.2,0.8-0.5,1.5-1.5,1.4
				c-0.5-0.3-0.9,0-1.3,0.1c-0.1-0.2-0.3-0.3-0.4-0.5C46.6,107,46.8,106.5,47,106.1z"/>
			<path class="st19" d="M51.7,99.9c0,0.3,0,0.6,0,0.9c-0.8,0.5-1.9,0.2-2.6,0.9c-0.1-0.1-0.1-0.2-0.2-0.3c0.8-1.3,1-2.8,1.9-3.9
				c0.2,0.1,0.4,0.2,0.5,0.3c-0.2,0.3-0.2,0.6,0,0.9c-0.9-0.1-1.2,0.6-1.1,1.2c0.1,0.7,0.7,0,1.1,0.1C51.5,99.8,51.6,99.9,51.7,99.9
				z"/>
			<path class="st20" d="M51.4,97.7c-0.2-0.1-0.4-0.2-0.5-0.3c0.3-0.7,0.5-1.4,1-2c0.1,0,0.2,0,0.2,0.1c0.5,0.9,1.3,0.3,2,0.3
				c-0.1,0.8-0.3,1.4-1.3,1.4C52.3,97.2,51.9,97.5,51.4,97.7z"/>
			<path class="st20" d="M48.6,108.8c-0.1,1-0.5,1.7-1.7,1.6c-0.5-0.1-1,0.3-1.6,0.5c-0.1-0.1-0.1-0.3-0.2-0.4
				c0.2-0.3,0.3-0.7,0.5-1c0.3-0.1,0.6-0.2,0.9-0.4c0.4,0.3,0.8,0.2,1.1,0C47.9,109,48.2,108.9,48.6,108.8z"/>
			<path class="st21" d="M61.9,73.1c0.5,1.1,1.5,0.6,2.4,0.7c-0.1,0.9-0.9,1.1-1.5,1.4c-0.5-0.4-1.3,0.5-1.6-0.5
				C61.4,74.2,61.7,73.7,61.9,73.1z"/>
			<path class="st20" d="M56.7,85.6c0.5,0.5,1.2,0.1,1.8,0.3c-0.1,0.7-0.2,1.3-1.1,1.2c-0.5,0-0.8,0.3-1.1,0.6
				c-0.5-0.1-0.5-0.5-0.6-0.8c0.2-0.3,0.3-0.7,0.5-1C56.3,85.8,56.5,85.7,56.7,85.6z"/>
			<path class="st17" d="M64.5,69c0.3-0.3,0.7-0.5,1-0.8c0.1,0.1,0.2,0.1,0.3,0.2c0.3,0.3,0.1,0.5-0.2,0.7c-0.2,0.1-0.5,0.3-0.4,0.4
				c0.2,1.3-0.9,1.4-1.6,1.9c-0.1-0.1-0.3-0.1-0.4-0.2c0.1-0.4,0.3-0.8,0.4-1.2c0,0,0,0,0,0C64,69.8,64.2,69.4,64.5,69z"/>
			<path class="st21" d="M48.4,103.5c0.7,0.7,1.5,0,2.2,0c0.2,1.1-0.7,1.3-1.3,1.6c-0.6,0.3-1.1,0.5-1.5-0.3
				C47.9,104.4,48,103.9,48.4,103.5z"/>
			<path class="st21" d="M60.8,81.1c-0.3,0.4-0.5,0.7-0.4,1.2c-0.3,0-0.5,0-0.8,0C59.4,82,59.2,82,59,82.4c-0.4,0.1-0.7,0.1-1.1,0.2
				c-0.1-0.1-0.2-0.2-0.2-0.4c0.2-0.6,0.5-1.1,0.7-1.7c0.1,0,0.2,0,0.3,0c0.5,0.7,1.2,0.4,1.9,0.3C60.7,80.9,60.7,81,60.8,81.1z"/>
			<path class="st21" d="M59.7,83.2c-0.3,1.6-1.7,1.4-2.8,1.9c-0.1-0.1-0.2-0.3-0.3-0.4c0.2-0.4,0.4-0.9,0.6-1.3c0.3,0,0.6,0,0.8,0
				C58.6,83.5,59.1,83.2,59.7,83.2L59.7,83.2z"/>
			<path class="st21" d="M63.1,71.2c0.1,0.1,0.3,0.1,0.4,0.2c0.5,0.5,1.2,0.6,1.9,0.6c0,0.1,0.1,0.2,0.1,0.3
				c-0.3,0.3-0.4,0.6-0.8,0.7c-0.8-0.4-1.7,0.3-2.5,0.1C62.3,72.3,62.8,71.8,63.1,71.2z"/>
			<path class="st21" d="M61.9,78.5c0,0.7-0.4,1.2-1,1.4C60.2,80,59.6,80,59,80c-0.3-0.6,0.2-1,0.4-1.5C60.2,78.5,61,78.5,61.9,78.5
				z"/>
			<path class="st20" d="M52.5,94c0.5-0.4,1.3-0.2,1.8-0.8c0.4-0.1,0.8-0.2,0.8,0.3c0,0.4-0.2,0.8-0.7,1c-0.7,0.2-1.5,0.4-2.2,0.5
				c-0.1-0.1-0.1-0.2-0.2-0.2C52.1,94.5,52.2,94.2,52.5,94z"/>
			<path class="st20" d="M54.6,90c-0.1-0.2-0.1-0.4-0.2-0.5c0.1-0.2,0.2-0.4,0.3-0.6c0.5-0.5,1.2-0.5,1.8-0.5c0.3,0,0.6-0.4,0.8,0.1
				c0.1,0.3-0.1,0.8-0.3,0.9C56.1,89.5,55.5,90.1,54.6,90z"/>
			<path class="st22" d="M62.9,76.1c0.2,0.9-0.4,1.2-1.1,1.4c-0.6-0.2-1.2,0.3-1.8-0.1c0.2-0.5,0.4-0.9,0.6-1.4
				C61.4,75.9,62.1,76.5,62.9,76.1z"/>
			<path class="st19" d="M60,77.4c0.6,0.4,1.2-0.1,1.8,0.1c0,0.3,0,0.6,0,1c-0.8,0-1.6,0-2.4,0.1C59.3,78,59.6,77.7,60,77.4z"/>
			<path class="st19" d="M62.9,76.1c-0.8,0.4-1.5-0.2-2.3,0c-0.1-0.6,0.2-1,0.6-1.3c0.3,1,1.2,0.1,1.6,0.5
				C62.9,75.5,62.9,75.8,62.9,76.1z"/>
			<path class="st19" d="M45.1,110.4c0.1,0.1,0.1,0.3,0.2,0.4"/>
			<path class="st13" d="M59,80c0.6,0,1.2-0.1,1.8-0.1c0,0.3-0.4,0.5-0.2,0.9c-0.6,0.1-1.3,0.4-1.9-0.3C58.9,80.4,59,80.2,59,80
				L59,80z"/>
			<path class="st15" d="M56.5,88.4c-0.7-0.1-1.3,0-1.8,0.5c0.1-0.8,0.5-1.4,0.9-2c0.2,0.3,0.2,0.7,0.6,0.8
				C56.3,87.9,56.4,88.2,56.5,88.4z"/>
			<path class="st19" d="M46.4,109.1c-0.3,0.1-0.6,0.2-0.9,0.4c0.1-0.8,0.3-1.5,0.9-2c0.1,0.2,0.3,0.3,0.4,0.5
				C47,108.4,46.5,108.6,46.4,109.1z"/>
			<path class="st23" d="M58,83.4c-0.3,0-0.6,0-0.8,0c-0.1-0.5,0.2-0.9,0.6-1.1c0.1,0.1,0.2,0.2,0.2,0.4C58,82.8,58,83.1,58,83.4z"
				/>
			<path class="st23" d="M56.6,84.7c0.1,0.1,0.2,0.3,0.3,0.4c-0.1,0.2-0.1,0.3-0.2,0.5c-0.2,0.1-0.4,0.2-0.6,0.2
				C56,85.4,56.2,85,56.6,84.7z"/>
			<path class="st19" d="M59,80c-0.1,0.2-0.2,0.3-0.2,0.5c-0.1,0-0.2,0-0.3,0C58.5,80.2,58.5,79.7,59,80z"/>
			<path class="st15" d="M52.1,94.9c0.1,0.1,0.1,0.2,0.2,0.2c-0.1,0.1-0.1,0.2-0.2,0.4c-0.1-0.1-0.1-0.1-0.2-0.1
				C51.8,95.1,51.9,95,52.1,94.9z"/>
			<path class="st13" d="M80.4,77.8c-0.2,0.3-0.7,0.5-0.4,1l0,0c-0.2,0.1-0.2,0.2-0.1,0.4l0,0c-0.4,0.2-0.5,0.6-0.5,1.1
				c-0.4,0.2-0.3,0.5-0.1,0.8c-0.6,0.2-0.5,0.9-0.9,1.3c-0.1-0.3-0.1-0.6-0.5-0.6c-0.3-0.3-0.7-0.5,0-0.8c0.5-0.2,0.6-0.6,0.7-1
				c0,0,0.1-0.1,0.1-0.1c0.7-0.6-1.1-0.2-0.3-0.8c0.4-0.3,0.8-0.5,1.1-0.9c0.3-0.4,0.7-0.8,0.4-1.4c-0.3-0.5,0.2-0.6,0.5-0.8l0.1,0
				c0.1,0.3,0.2,0.6,0.3,0.9l0,0C80,77.1,80.2,77.5,80.4,77.8z"/>
			<path class="st19" d="M78.9,71.7c0.2,0.1,0.3,0.1,0.5,0.2c-0.1,0.5-0.4,1-0.9,1.5C78.4,72.6,78.5,72.1,78.9,71.7z"/>
			<path class="st14" d="M74.1,70.1c0-0.2,0.2-0.4,0.4-0.4c0,0.1,0.1,0.1,0.1,0.2c0.2,0.4,1,0.1,1.1,0.8c-0.4-0.1-0.8-0.1-1.2-0.2
				C74.4,70.3,74.2,70.2,74.1,70.1z"/>
			<path class="st13" d="M80.4,75.3c0,0.1,0.1,0.2,0.2,0.3c0,0.1,0.1,0.1,0.1,0.2c-0.1,0.1-0.2,0.2-0.4,0.3l-0.1,0
				C80.1,75.7,80.1,75.4,80.4,75.3z"/>
			<path class="st11" d="M77.6,70.6c0.2,0.1,0.3,0.4,0,0.4c-0.2,0.1-0.3-0.2-0.4-0.4C77.3,70.7,77.5,70.6,77.6,70.6z"/>
			<path class="st11" d="M78.1,69.8c0-0.3,0.1-0.4,0.4-0.1C78.4,69.7,78.2,69.7,78.1,69.8z"/>
			<path class="st15" d="M77.6,70.6c-0.1,0-0.2,0.1-0.4,0.1c0-0.1,0-0.1-0.1-0.2c0.1-0.1,0.2-0.1,0.3-0.2
				C77.5,70.4,77.5,70.5,77.6,70.6z"/>
			<path class="st20" d="M49.1,101.6c0.7-0.7,1.8-0.4,2.6-0.9c0,1.2-1.4,2.4-2.4,1.9C48.9,102.4,49.2,102,49.1,101.6z"/>
			<path class="st20" d="M51.7,99.9c-0.1,0-0.2-0.1-0.2-0.1c-0.4-0.1-1,0.6-1.1-0.1c-0.1-0.5,0.2-1.3,1.1-1.2c0.5-0.1,1-0.1,1.5-0.2
				C52.9,99.3,52.5,99.7,51.7,99.9z"/>
			<path class="st14" d="M46.4,109.1c0-0.4,0.5-0.7,0.4-1.1c0.4-0.2,0.8-0.4,1.3-0.1c0.1,0.1,0.1,0.3,0.2,0.4
				c-0.4,0.2-0.9,0.2-0.8,0.8C47.2,109.2,46.8,109.4,46.4,109.1z"/>
			<path class="st19" d="M47.6,109.1c-0.1-0.6,0.4-0.6,0.8-0.8c0.1,0.2,0.1,0.4,0.2,0.6C48.2,108.9,47.9,109,47.6,109.1z"/>
			<path class="st18" d="M70.9,66.5c0-0.3,0.3-0.3,0.5-0.4c0.4,0.3,1.3,0,1.3,0.9c-0.3,0.4-0.1,0.5,0.3,0.5c0.1,0,0.1,0.1,0.2,0.2
				c0.4,0.8,0.4,1.5-0.8,1.4c-0.5-0.5-1-0.8-1.7-0.4c-0.4,0.2-0.7,0.2-1.1-0.1c0.1-0.7-0.9-0.7-0.9-1.3c1-0.1,1.8,0.3,2.6,0.8
				C71.5,67.4,71.5,66.8,70.9,66.5z"/>
			<path class="st19" d="M69.7,68.5c0.3,0.3,0.7,0.3,1.1,0.1c0.7-0.4,1.2-0.1,1.7,0.4c-1.8,0.2-3.5,0.4-5.1,1.3l0-0.1
				c0-0.3,0-0.6,0.2-0.9c0.6-0.1,1.7,0.4,1.1-1C69,68.1,69.3,68.6,69.7,68.5z"/>
			<path class="st18" d="M74.6,69.8c0-0.1-0.1-0.1-0.1-0.2c0-0.1,0-0.2,0-0.4c0.1,0,0.2,0,0.2,0.1C74.6,69.5,74.6,69.7,74.6,69.8z"
				/>
			<path class="st15" d="M78.3,82.3c0.4-0.4,0.3-1,0.9-1.3c0.2,0.8-0.4,1.5-0.5,2.3c-0.2,0.1-0.4,0.2-0.6,0.3c-0.1,0-0.2,0-0.3,0
				C77.9,83.2,78.1,82.7,78.3,82.3z"/>
			<path class="st9" d="M76,83.5c0.2-0.5,0.6-0.5,1-0.6C76.7,83.9,76.6,84,76,83.5z"/>
			<path class="st19" d="M77.7,83.6c0.1,0,0.2,0,0.3,0c0,0.1,0,0.2-0.1,0.3C77.9,83.8,77.8,83.7,77.7,83.6z"/>
			<path class="st10" d="M67.5,69.4c-0.2,0.3-0.2,0.6-0.2,0.9c-0.6,0.3-1,0.9-1.4,1.4c-0.2,0.1-0.3,0.1-0.5,0.2
				c-0.7,0-1.3-0.1-1.9-0.6c0.8-0.4,1.9-0.5,1.6-1.9c0-0.1,0.3-0.3,0.4-0.4c0.5,0.6,0.9,0.5,1.4-0.1C67.2,69.1,67.3,69.3,67.5,69.4z
				"/>
			<path class="st12" d="M67,69c-0.4,0.6-0.9,0.7-1.4,0.1c0.3-0.1,0.5-0.3,0.2-0.7c0.1-0.3,0.4-0.4,0.7-0.6C67,68.1,66.9,68.6,67,69
				z"/>
			<path class="st19" d="M66.5,67.8c-0.3,0.1-0.6,0.2-0.7,0.6c-0.1-0.1-0.2-0.1-0.3-0.2c0.3-0.7,0.9-0.9,1.6-1.1
				C67.2,67.6,66.8,67.7,66.5,67.8z"/>
			<path class="st9" d="M64.5,69c-0.3,0.4-0.6,0.8-1,1C63.1,68.8,63.7,68.8,64.5,69z"/>
			<path class="st11" d="M73,67.5c-0.4,0-0.6-0.1-0.3-0.5C72.8,67.1,72.9,67.3,73,67.5z"/>
			<path class="st15" d="M79.3,80.2c0-0.4,0-0.8,0.5-1.1c0.2,0.4,0,0.7-0.2,1C79.5,80.2,79.4,80.2,79.3,80.2z"/>
			<path class="st12" d="M78.7,85.3c0,0-0.1,0-0.1-0.1C78.6,85.2,78.7,85.2,78.7,85.3L78.7,85.3z"/>
			<path class="st14" d="M65.4,71.9c0.2-0.1,0.3-0.1,0.5-0.2c0,0.2-0.2,0.4-0.4,0.4C65.5,72.1,65.4,72,65.4,71.9z"/>
			<path class="st9" d="M70.9,66.5c0.6,0.3,0.6,0.9,0.5,1.5c-0.8-0.5-1.7-0.9-2.6-0.8c-0.5-0.2-0.4-0.7-0.7-1.1
				c0.4-0.4,0.7,0,1.1,0.1C69.7,66.5,70.2,67.1,70.9,66.5z"/>
			<path class="st17" d="M80.3,76c0.1-0.1,0.2-0.2,0.4-0.3c0.2,0.4,0.3,0.8-0.1,1.2C80.5,76.6,80.4,76.3,80.3,76z"/>
			<path class="st17" d="M80.4,77.8c-0.2-0.3-0.4-0.7,0.2-0.9c0.1,0.3,0.1,0.5,0.2,0.8C80.6,77.8,80.5,77.8,80.4,77.8z"/>
			<path class="st17" d="M81.2,75.1c0-0.1,0.1-0.2,0.1-0.3c0.1,0.1,0.1,0.2,0.2,0.3C81.4,75.2,81.3,75.2,81.2,75.1z"/>
			<path class="st15" d="M79.8,79.2c0-0.2,0-0.3,0.1-0.4C80,79,80,79.1,79.8,79.2z"/>
			<path class="st10" d="M58,83.4c0-0.3,0-0.5,0-0.8c0.4-0.1,0.7-0.1,1.1-0.2c0.1,0.2,0.2,0.4,0.4,0.4c0.1,0.2,0.1,0.3,0.2,0.5
				C59.1,83.2,58.6,83.5,58,83.4z"/>
			<path class="st23" d="M59.5,82.7c-0.3,0-0.4-0.2-0.4-0.4c0.1-0.4,0.3-0.3,0.5-0.1C59.6,82.5,59.5,82.6,59.5,82.7z"/>
		</g>
	</g>
	<g id="ACR1EU.tif_1_">
		<g>
			<path class="st0" d="M33.8,103.3c0.3,0.9,0.7,1.8,1,2.7c0.2,0.5,0.4,1,0.6,1.6c-0.2-2.1-0.3-4.1,0.1-6.1c0,0,0.1,0,0.1,0
				c0.2,1.8,0.5,3.6,0.7,5.4c0,0,0,0,0,0c0.1,0.2,0.2,0.3,0.4,0.5c0.1,0.1,0.2,0.2,0.3,0.2c0.1-0.1,0.1-0.2,0.2-0.3
				c0.4-0.7,0.7-1.4,1-2.1c0.1-0.2,0.1-0.4,0.1-0.6c0-0.2,0.1-0.4,0.1-0.5c0,0,0.1,0,0.1,0c0,0.4,0.1,0.7,0.1,1.1c0,0,0,0,0.1,0
				c0-0.3,0-0.6,0-0.9c0,0,0.1,0,0.1,0c0,0.4,0.4-0.1,0.2,0c0.1-1.8,0.3-3.6,0.4-5.4c0,0,0,0,0.1,0c0,0.4,0.1,0.9,0.1,1.3
				c0,0.4,0.1,0.9,0.1,1.3c0-1.8-0.2-3.7,0.6-5.5c0.6,2.7,1.6,5.3,1.8,8.1c0-0.4-0.1-0.7-0.1-1.1c0-0.4-0.1-0.7-0.2-1.1
				c0-0.3-0.1-0.6-0.2-0.9c0-0.4-0.1-0.8,0-1.1c0.3-1.8,0.6-3.5,1-5.3c0.1-0.5,0.3-1,0.5-1.5c0,0,0.1,0,0.1,0
				c0.1,1.1,0.2,2.2,0.2,3.3c0,0.6,0,1.3,0,1.9c-0.1,0.5,0.1,1,0.4,1.4c0.5,1,1,1.9,1.5,2.9c0,0,0,0.1,0.1,0.1
				c0.4-0.5,0.7-1,0.7-1.7c0-1.2,0.3-2.4,0.4-3.6c0-0.2,0.2-0.5,0.2-0.7c0,0,0.1,0,0.1,0c0.1,0.8,0.3,1.6,0.4,2.5
				c-0.1-0.1-0.2-0.1-0.3-0.2c-0.1,0.4-0.1,0.7-0.2,1.1c0,0,0,0,0,0c0.1-0.2,0.1-0.5,0.2-0.8c0.4,0.4,0.4,0.9,0.5,1.4
				c0,0,0.1,0,0.1,0c0-0.3-0.1-0.6-0.1-1c0-0.2-0.1-0.3-0.1-0.5c0.1-0.6,0.2-1.1,0.4-1.7c0.1,0.2,0.2,0.4,0.3,0.7
				c0.3,1.3,0.5,2.7,0.4,4c0,0.1,0.1,0.1,0.1,0.2c0.5,0.9,1,1.7,1.5,2.6c0.1,0.1-0.1,0.4-0.1,0.6c0.3-0.5,0.6-1.1,0.9-1.6
				c0,0,0.1,0,0.1,0c0.1,0.4,0.3,0.8,0.4,1.2c0.1,0,0.1,0,0.2,0c0-0.2,0-0.4,0-0.6c-0.2-2.1-0.4-4.2-0.5-6.2
				c-0.1-1.4,0.1-2.9,0.1-4.3c0.1,0,0.1,0,0.2,0c0.1,0.3,0.3,0.5,0.3,0.8c0.2,1.1,0.5,2.1,0.7,3.2c0.2,0.8,0.3,1.6,0.4,2.5
				c0,0.3,0,0.7-0.1,1c-0.1,0.5-0.1,0.9-0.2,1.4c0.5-2,1-4,1.5-6.1c0,0,0.1,0,0.1,0c0.1,0.2,0.2,0.4,0.3,0.6
				c0.3,1.2,0.4,2.4,0.3,3.7c0,0.3,0,0.5,0,0.8c0.1-0.8,0.1-1.6,0.2-2.4c0,0,0,0,0.1,0c0.1,1.7,0.2,3.4,0.4,5.1
				c-0.2-0.2-0.2,0.7,0.1,1c0-0.4,0-0.7,0-1c0,0,0,0,0.1,0c0,0.2,0,0.5,0,0.7c0,0,0.1,0,0.1,0c0.1-0.3,0.1-0.6,0.2-1
				c0,0,0.1,0,0.1,0c0,0.1,0.1,0.2,0.1,0.3c0.1,0.5,0.2,0.8,0.5,1.2c0.3,0.5,0.5,1,0.7,1.5c0,0.1,0.1,0.2,0.2,0.3
				c0.1-0.1,0.2-0.1,0.3-0.2c0.1-0.1,0.2-0.3,0.4-0.4c0.2-1.7,0.4-3.4,0.7-5.1c0,0,0.1,0,0.1,0c0.4,1.9,0.2,3.8,0.1,5.7
				c0.8-1.9,1.6-3.8,2.4-5.8c0.1,0,0.1,0,0.2,0c0,0.5,0.1,1,0,1.4c-0.2,1.5-0.5,3-0.8,4.5c-0.1,0.4-0.2,0.8-0.2,1.2
				c0.1-0.6,0.3-1.3,0.4-1.9c0.2-1.2,0.5-2.4,0.7-3.6c0.1-0.4,0.1-0.8,0.1-1.1c-0.1-1,0.4-1.8,0.7-2.7c0,0,0.1,0,0.1,0
				c0,0.2,0,0.4,0,0.7c-0.3,1.9-0.6,3.8-0.9,5.7c-0.1,0.9-0.3,1.7-0.5,2.6c-0.2,0.7-0.4,1.5-0.6,2.2c-0.1,0.3-0.2,0.4-0.5,0.4
				c-0.7,0-1.3,0-2,0c-0.2,0-0.3-0.1-0.3-0.3c0-0.3,0-0.5,0-0.8c0,0.2,0,0.4,0,0.6c0,0.6,0,0.6-0.7,0.6c-0.3-1.6-0.7-2.3-0.6-1.9
				c0,0-0.2-0.4-0.3-0.7c0,0.4,0.2,1.2,0.3,1.3c0.1,0.4,0.1,0.8,0.1,1.2c-0.1,0-0.1,0-0.2,0c-0.1,0-0.2,0-0.3,0
				c-0.6,0-0.6,0-0.6-0.5c0,0,0-0.1,0-0.1c0,0.2,0,0.4,0,0.7c-0.3,0-0.6,0-0.8,0c-4.9,0-9.9,0-14.8,0c-0.2,0-0.5,0.2-0.6-0.2
				c-0.4,0.4-0.8,0.1-1.2,0.2c0-0.5,0-1,0.1-1.4c0.1-1,0.2-2,0.4-2.9c0-0.1,0-0.3,0-0.5c0.3,0.5,0.5,1,0.5,1.6
				c0,0.6,0.1,1.1,0.1,1.7c0,0.2,0,0.4,0.1,0.7c0.1-1.9-0.1-3.4-0.8-4.2c-0.3,1.7-0.7,3.4-1,5.1c-0.7,0.1-0.7,0-0.8-0.6
				c0-0.2,0-0.4-0.1-0.6c0,0.3,0,0.6,0,0.9c0,0.2-0.1,0.3-0.3,0.3c-0.8,0-1.5,0-2.3,0c-0.1,0-0.3-0.2-0.3-0.3
				c-0.1-0.6-0.2-1.1-0.3-1.7c0-0.2-0.2-0.3-0.2-0.5c-0.2-0.8-0.4-1.5-0.5-2.3c-0.4-2.3-0.7-4.5-1.1-6.8c0-0.3,0-0.6-0.1-0.8
				c0,0,0.1,0,0.1,0c0.3,0.8,0.6,1.5,0.8,2.3c0.1,0.2-0.1,0.5,0,0.7c0.1,1.2,0.3,2.4,0.5,3.6c0.2,1.4,0.6,2.7,1,4
				c-0.1-0.3-0.1-0.6-0.2-0.8c-0.3-1.2-0.6-2.4-0.8-3.6c-0.2-0.9-0.2-1.8-0.3-2.7c0-0.4,0.1-0.8,0.1-1.2
				C33.1,102,33.4,102.7,33.8,103.3L33.8,103.3z M44.7,105.5c-0.1-0.4-0.2-0.8,0.1-1.2c0,0,0-0.1,0-0.2c-0.2-1.3-0.4-2.7-1.1-3.9
				c0-0.1-0.1-0.2-0.2-0.3c-0.2,1.7-0.4,3.3-0.5,5c0.5-0.4,0.4-0.9,0.7-1.4c0,0.2,0,0.3,0,0.4c0.1-0.1,0.1-0.1,0.2-0.2
				C44.2,104.3,44.5,104.9,44.7,105.5z M47,100.7c-0.4,1.7-0.8,3.4-0.8,5C46.4,104.1,46.7,102.4,47,100.7z M38.4,108.6
				C38.4,108.6,38.3,108.6,38.4,108.6c-0.1,0.4-0.1,0.8-0.1,1.3c0,0,0.1,0,0.1,0C38.4,109.4,38.4,109,38.4,108.6z M48.9,105.5
				C48.9,105.5,48.9,105.5,48.9,105.5c0-0.5,0-0.9-0.1-1.4c0,0-0.1,0-0.1,0C48.8,104.6,48.8,105.1,48.9,105.5z"/>
		</g>
	</g>
</g>
<g id="Layer_2">
</g>
</svg>
