<?xml version="1.0" encoding="utf-8"?>
<!-- Generator: Adobe Illustrator 20.1.0, SVG Export Plug-In . SVG Version: 6.00 Build 0)  -->
<svg version="1.1" xmlns="http://www.w3.org/2000/svg" xmlns:xlink="http://www.w3.org/1999/xlink" x="0px" y="0px"
	 viewBox="0 0 155.9 155.9" style="enable-background:new 0 0 155.9 155.9;" xml:space="preserve">
<style type="text/css">
	.st0{fill-rule:evenodd;clip-rule:evenodd;fill:#58646D;}
	.st1{fill-rule:evenodd;clip-rule:evenodd;fill:#C99D65;}
	.st2{fill-rule:evenodd;clip-rule:evenodd;fill:#935E35;}
	.st3{fill-rule:evenodd;clip-rule:evenodd;fill:#B17E49;}
</style>
<g id="Layer_1">
	<path class="st0" d="M148.1,19.5c0-7.2-5.8-13.1-13.1-13.1H20.2c-7.2,0-13.1,5.8-13.1,13.1v114.9c0,7.2,5.8,13.1,13.1,13.1h114.9
		c7.2,0,13.1-5.8,13.1-13.1V19.5z"/>
	<polygon class="st1" points="35.2,85.5 31.3,85.5 99,34.4 102.8,34.4 	"/>
	<polygon class="st1" points="42.1,85.5 38.3,85.5 104.3,34.4 108.2,34.4 	"/>
	<polygon class="st1" points="49.6,85.5 45.8,85.5 109.4,34.4 113.3,34.4 	"/>
	<polygon class="st1" points="56.6,85.5 52.7,85.5 114.8,34.4 118.6,34.4 	"/>
	<polygon class="st1" points="63.5,85.5 59.2,85.5 119.7,34.4 124,34.4 	"/>
	<rect x="31.3" y="86.5" class="st2" width="3.9" height="0.9"/>
	<rect x="38.3" y="86.5" class="st2" width="3.9" height="0.9"/>
	<rect x="45.8" y="86.5" class="st2" width="3.9" height="0.9"/>
	<rect x="52.7" y="86.5" class="st2" width="3.9" height="0.9"/>
	<rect x="59.3" y="86.5" class="st2" width="3.9" height="0.9"/>
	<rect x="72.2" y="80.1" class="st3" width="0.8" height="0.5"/>
	<polygon class="st1" points="75,78.4 73.1,80.1 73.1,80.5 75,78.9 	"/>
	<polygon class="st2" points="124,35.5 63.5,86.5 63.5,87.4 124,36.5 	"/>
	<rect x="94.9" y="61" class="st3" width="0.8" height="0.5"/>
	<polygon class="st1" points="97.6,59.3 95.7,61 95.7,61.5 97.6,59.8 	"/>
	<rect x="115.6" y="43.5" class="st3" width="0.8" height="0.5"/>
	<polygon class="st1" points="118.4,41.8 116.5,43.5 116.5,44 118.4,42.3 	"/>
	<rect x="31.3" y="92.9" class="st2" width="3.9" height="0.9"/>
	<rect x="38.3" y="92.9" class="st2" width="3.9" height="0.9"/>
	<rect x="45.8" y="92.9" class="st2" width="3.9" height="0.9"/>
	<rect x="52.7" y="92.9" class="st2" width="3.9" height="0.9"/>
	<rect x="59.3" y="92.9" class="st2" width="3.9" height="0.9"/>
	<rect x="72.2" y="86.5" class="st3" width="0.8" height="0.5"/>
	<polygon class="st1" points="75,84.8 73.1,86.5 73.1,86.9 75,85.3 	"/>
	<polygon class="st2" points="124,41.9 63.5,92.9 63.5,93.8 124,42.9 	"/>
	<rect x="94.9" y="67.4" class="st3" width="0.8" height="0.5"/>
	<polygon class="st1" points="97.6,65.7 95.7,67.4 95.7,67.9 97.6,66.2 	"/>
	<rect x="115.6" y="49.9" class="st3" width="0.8" height="0.5"/>
	<polygon class="st1" points="118.4,48.2 116.5,49.9 116.5,50.4 118.4,48.7 	"/>
	<rect x="31.3" y="99.3" class="st2" width="3.9" height="0.9"/>
	<rect x="38.3" y="99.3" class="st2" width="3.9" height="0.9"/>
	<rect x="45.8" y="99.3" class="st2" width="3.9" height="0.9"/>
	<rect x="52.7" y="99.3" class="st2" width="3.9" height="0.9"/>
	<rect x="59.3" y="99.3" class="st2" width="3.9" height="0.9"/>
	<rect x="72.2" y="92.9" class="st3" width="0.8" height="0.5"/>
	<polygon class="st1" points="75,91.2 73.1,92.9 73.1,93.3 75,91.7 	"/>
	<polygon class="st2" points="124,48.3 63.5,99.3 63.5,100.2 124,49.3 	"/>
	<rect x="94.9" y="73.8" class="st3" width="0.8" height="0.5"/>
	<polygon class="st1" points="97.6,72.1 95.7,73.8 95.7,74.3 97.6,72.6 	"/>
	<rect x="115.6" y="56.3" class="st3" width="0.8" height="0.5"/>
	<polygon class="st1" points="118.4,54.6 116.5,56.3 116.5,56.8 118.4,55.1 	"/>
	<rect x="31.3" y="105.7" class="st2" width="3.9" height="0.9"/>
	<rect x="38.3" y="105.7" class="st2" width="3.9" height="0.9"/>
	<rect x="45.8" y="105.7" class="st2" width="3.9" height="0.9"/>
	<rect x="52.7" y="105.7" class="st2" width="3.9" height="0.9"/>
	<rect x="59.3" y="105.7" class="st2" width="3.9" height="0.9"/>
	<rect x="72.2" y="99.3" class="st3" width="0.8" height="0.5"/>
	<polygon class="st1" points="75,97.6 73.1,99.3 73.1,99.7 75,98.1 	"/>
	<polygon class="st2" points="124,54.7 63.5,105.7 63.5,106.6 124,55.7 	"/>
	<rect x="94.9" y="80.2" class="st3" width="0.8" height="0.5"/>
	<polygon class="st1" points="97.6,78.5 95.7,80.2 95.7,80.7 97.6,79 	"/>
	<rect x="115.6" y="62.7" class="st3" width="0.8" height="0.5"/>
	<polygon class="st1" points="118.4,61 116.5,62.7 116.5,63.2 118.4,61.5 	"/>
	<rect x="31.3" y="112.1" class="st2" width="3.9" height="0.9"/>
	<rect x="38.3" y="112.1" class="st2" width="3.9" height="0.9"/>
	<rect x="45.8" y="112.1" class="st2" width="3.9" height="0.9"/>
	<rect x="52.7" y="112.1" class="st2" width="3.9" height="0.9"/>
	<rect x="59.3" y="112.1" class="st2" width="3.9" height="0.9"/>
	<rect x="72.2" y="105.7" class="st3" width="0.8" height="0.5"/>
	<polygon class="st1" points="75,104 73.1,105.7 73.1,106.1 75,104.5 	"/>
	<polygon class="st2" points="124,61.1 63.5,112.1 63.5,113 124,62.1 	"/>
	<rect x="94.9" y="86.6" class="st3" width="0.8" height="0.5"/>
	<polygon class="st1" points="97.6,84.9 95.7,86.6 95.7,87.1 97.6,85.4 	"/>
	<rect x="115.6" y="69.1" class="st3" width="0.8" height="0.5"/>
	<polygon class="st1" points="118.4,67.4 116.5,69.1 116.5,69.6 118.4,67.9 	"/>
	<rect x="31.3" y="118.5" class="st2" width="3.9" height="0.9"/>
	<rect x="38.3" y="118.5" class="st2" width="3.9" height="0.9"/>
	<rect x="45.8" y="118.5" class="st2" width="3.9" height="0.9"/>
	<rect x="52.7" y="118.5" class="st2" width="3.9" height="0.9"/>
	<rect x="59.3" y="118.5" class="st2" width="3.9" height="0.9"/>
	<rect x="72.2" y="112.1" class="st3" width="0.8" height="0.5"/>
	<polygon class="st1" points="75,110.4 73.1,112.1 73.1,112.5 75,110.9 	"/>
	<polygon class="st2" points="124,67.5 63.5,118.5 63.5,119.4 124,68.5 	"/>
	<rect x="94.9" y="93" class="st3" width="0.8" height="0.5"/>
	<polygon class="st1" points="97.6,91.3 95.7,93 95.7,93.5 97.6,91.8 	"/>
	<rect x="115.6" y="75.5" class="st3" width="0.8" height="0.5"/>
	<polygon class="st1" points="118.4,73.8 116.5,75.5 116.5,76 118.4,74.3 	"/>
</g>
<g id="Layer_2">
</g>
</svg>
