<?xml version="1.0" encoding="utf-8"?>
<!-- Generator: Adobe Illustrator 20.1.0, SVG Export Plug-In . SVG Version: 6.00 Build 0)  -->
<svg version="1.1" xmlns="http://www.w3.org/2000/svg" xmlns:xlink="http://www.w3.org/1999/xlink" x="0px" y="0px"
	 viewBox="0 0 155.9 155.9" style="enable-background:new 0 0 155.9 155.9;" xml:space="preserve">
<style type="text/css">
	.st0{fill-rule:evenodd;clip-rule:evenodd;fill:#58646D;}
	.st1{fill-rule:evenodd;clip-rule:evenodd;fill:#868786;}
	.st2{fill-rule:evenodd;clip-rule:evenodd;fill:#006531;}
	.st3{fill-rule:evenodd;clip-rule:evenodd;fill:#6E6E6E;}
	.st4{fill-rule:evenodd;clip-rule:evenodd;fill:#1770B8;}
</style>
<g id="Layer_1">
	<path class="st0" d="M148.7,19.7c0-7.2-5.9-13.1-13.1-13.1h-115c-7.2,0-13.1,5.9-13.1,13.1v115c0,7.2,5.9,13.1,13.1,13.1h115
		c7.2,0,13.1-5.9,13.1-13.1V19.7z"/>
	<polygon class="st1" points="98.6,51.1 54.6,51.1 54.6,28.4 76.6,22.4 98.6,28.4 	"/>
	<g id="YxtUvh.tif">
		<g>
			<path class="st2" d="M103,48.1c1.6,1.5,2.2,3.3,2.1,5.4c-0.1,5.8-0.1,11.6,0,17.4c0,2.2-0.3,4.2-2.2,5.9c2,1.7,2.2,3.8,2.2,6.2
				c-0.1,6,0.1,12-0.1,18c0,1.6-1,3.1-1.6,5c1.3,1.3,1.6,3.3,1.7,5.5c0.2,5.9-0.8,11.4-4.6,16.2c-4.2,5.1-9.5,7.8-16.2,7.9
				c-5,0.1-10,0-14.9,0c-10.9-0.1-20.3-9.4-20.5-20.3c0-1.3,0-2.6,0-3.9c0-3,0.1-3.4,2-5.8c-1.8-1.7-2.1-3.9-2.1-6.2
				c0.1-5.8-0.1-11.6,0.1-17.4c0.1-1.8,1.7-3.6,1.4-5.2c-0.3-1.7-1.6-3.3-1.6-5.3c0.1-5.9,0.1-11.7,0-17.6c0-2.1,0.4-4,2.1-5.5
				c-3.5-4-2.1-8.5-0.8-12.6c3.3-10.5,12.9-17.4,24-17.4c4.4,0,8.9-0.3,13.2,1.1c10.1,3.1,17.5,12.7,17.7,23.1
				C105.1,44.5,104.7,46.4,103,48.1z M77,49.4c3.8,0,7.6,0,11.4,0c4.6-0.1,8.2-3.4,8.7-8c0.7-7.3-5.4-14.2-12.8-14.4
				c-4.6-0.1-9.1-0.1-13.7,0c-6.4,0-11.7,4.2-13.3,10.5c-1.7,6.7,2.4,11.9,9.2,11.9C70,49.4,73.5,49.4,77,49.4z M82.1,119.4
				c1.9-0.3,3-1.5,3.1-3.3c0.2-2.1,0.3-4.1,0.3-6.2c0-12.3-0.1-24.6-0.1-36.9c0-5.6,0-11.2,0-17c2.9-0.5,0.5-2.5,0.8-3.9
				c0-0.2-0.9-0.9-1.3-1c-2.1-0.1-1.2,1.7-1.7,2.7c-0.7,1.5,0.5,1.9,1.3,2.1c0,2.4,0,4.6,0,6.7c0.1,7.1,0.3,14.3,0.3,21.4
				c0,10.3-0.2,20.6-0.2,30.9C84.5,117.1,83.9,118.5,82.1,119.4z M92,63.2c0.6-0.6,1.3-1.1,1.7-1.7c0.2-0.3,0-1.1-0.2-1.4
				c-1.3-1.6-2.6-3-4-4.5c-0.9-1-1.6-0.6-2.4,0.1c-0.8,0.7-1.1,1.4-0.3,2.3c1.3,1.5,2.7,3,4,4.5C91.1,62.7,91.5,62.8,92,63.2z"/>
			<path class="st3" d="M82.1,119.4c1.8-0.9,2.4-2.3,2.4-4.3c0-10.3,0.2-20.6,0.2-30.9c0-7.1-0.2-14.3-0.3-21.4c0-2.2,0-4.4,0-6.7
				c-0.8-0.2-2-0.6-1.3-2.1c0.4-1-0.4-2.8,1.7-2.7c0.5,0,1.4,0.7,1.3,1c-0.2,1.3,2.1,3.4-0.8,3.9c0,5.8,0,11.4,0,17
				c0,12.3,0.1,24.6,0.1,36.9c0,2.1-0.1,4.1-0.3,6.2C85.1,117.9,84,119.1,82.1,119.4z"/>
			<path class="st3" d="M92,63.2c-0.5-0.3-0.9-0.5-1.2-0.8c-1.4-1.5-2.7-3-4-4.5c-0.8-0.9-0.5-1.6,0.3-2.3c0.8-0.7,1.6-1.1,2.4-0.1
				c1.3,1.5,2.7,3,4,4.5c0.3,0.3,0.4,1.1,0.2,1.4C93.3,62.1,92.6,62.6,92,63.2z M89.8,57.2c0-0.4-0.1-0.7-0.1-1.1
				c-0.7,0-1.5,0-2.2,0c0.1,0.6,0.1,1.3,0.2,1.9C88.4,57.8,89.1,57.5,89.8,57.2z"/>
			<path class="st4" d="M89.8,57.2c-0.7,0.3-1.4,0.5-2.1,0.8c-0.1-0.6-0.1-1.3-0.2-1.9c0.7,0,1.5,0,2.2,0
				C89.8,56.5,89.8,56.9,89.8,57.2z"/>
		</g>
	</g>
</g>
<g id="Layer_2">
</g>
</svg>
