<?xml version="1.0" encoding="utf-8"?>
<!-- Generator: Adobe Illustrator 20.1.0, SVG Export Plug-In . SVG Version: 6.00 Build 0)  -->
<svg version="1.1" xmlns="http://www.w3.org/2000/svg" xmlns:xlink="http://www.w3.org/1999/xlink" x="0px" y="0px"
	 viewBox="0 0 155.9 155.9" style="enable-background:new 0 0 155.9 155.9;" xml:space="preserve">
<style type="text/css">
	.st0{fill-rule:evenodd;clip-rule:evenodd;fill:#58646D;}
	.st1{fill-rule:evenodd;clip-rule:evenodd;fill:#B17E49;}
	.st2{fill-rule:evenodd;clip-rule:evenodd;fill:#7D4D22;}
	.st3{fill-rule:evenodd;clip-rule:evenodd;fill:#412714;}
</style>
<g id="Layer_1">
	<path class="st0" d="M148.8,20.1c0-7.3-5.9-13.2-13.2-13.2H19.3C12,6.9,6.1,12.8,6.1,20.1v116.3c0,7.3,5.9,13.2,13.2,13.2h116.3
		c7.3,0,13.2-5.9,13.2-13.2V20.1z"/>
	<path class="st1" d="M124.9,54.8c0,0-8.1,0.3-14.6,3.8c-6.6,3.5-11.6,12.8-17.3,16.6C84.4,81.1,74,82,74,82L25.1,55.4
		c0,0,10-5.2,16.5-8.5c6.5-3.3,10.6-5.5,18.1-9.3c7.5-3.9,14.3-7.4,14.3-7.4s8-0.2,13.5,2.5C93,35.3,99.3,45.8,105.9,49
		C112.5,52.1,124.9,54.8,124.9,54.8z"/>
	<path class="st2" d="M74,97.1l51.5-27.4V58.3c0,0-5.4-1.2-12.4,2.5c-7,3.7-11.8,13.7-20.6,18.4C83.6,83.9,74,85.7,74,85.7V97.1z"/>
	<polygon class="st3" points="74,123.4 125.4,96 125.4,73.1 74,100.5 	"/>
	<polygon class="st3" points="74,123.4 25.1,97.1 25.1,74.2 74,100.5 	"/>
	<path class="st1" d="M141.7,77.4"/>
	<polygon class="st2" points="25.1,70.3 74,97.1 74,85.7 25.1,58.8 	"/>
</g>
<g id="Layer_2">
</g>
</svg>
