<?xml version="1.0" encoding="utf-8"?>
<!-- Generator: Adobe Illustrator 20.1.0, SVG Export Plug-In . SVG Version: 6.00 Build 0)  -->
<svg version="1.1" xmlns="http://www.w3.org/2000/svg" xmlns:xlink="http://www.w3.org/1999/xlink" x="0px" y="0px"
	 viewBox="0 0 155.9 155.9" style="enable-background:new 0 0 155.9 155.9;" xml:space="preserve">
<style type="text/css">
	.st0{fill-rule:evenodd;clip-rule:evenodd;fill:#58646D;}
	.st1{fill-rule:evenodd;clip-rule:evenodd;fill:#6E6E6E;}
	.st2{fill-rule:evenodd;clip-rule:evenodd;fill:#B1B2B3;}
	.st3{fill-rule:evenodd;clip-rule:evenodd;fill:#868786;}
</style>
<g id="Layer_1">
	<g>
		<path class="st0" d="M148.8,20.2c0-7.2-5.9-13.1-13.1-13.1H20.3C13,7.1,7.2,13,7.2,20.2v115.4c0,7.2,5.9,13.1,13.1,13.1h115.4
			c7.2,0,13.1-5.9,13.1-13.1V20.2z"/>
		<g>
			<polygon class="st1" points="39.8,81.5 18.9,81.5 47.8,59.3 68.7,59.3 			"/>
			<polygon class="st2" points="43.4,96.1 22.5,96.1 51.4,73.9 72.3,73.9 			"/>
			<polygon class="st3" points="73.6,72.7 52.7,72.7 81.6,50.5 102.5,50.5 			"/>
			<rect x="22.5" y="97.3" class="st3" width="20.4" height="17"/>
			<polygon class="st3" points="21.3,99.5 18.3,99.5 18.3,82.6 38.7,82.6 21.3,95.9 			"/>
			<polygon class="st3" points="53.2,107.3 44.1,114.3 44.1,97.3 53.2,90.4 			"/>
			<polygon class="st3" points="75.3,89.1 54.4,89.1 83.2,67 104.2,67 			"/>
			<polygon class="st3" points="104.2,85.1 76.1,107 76.1,90.4 104.2,68.5 			"/>
			<polygon class="st1" points="105.4,65.6 84.5,65.6 113.4,43.5 134.3,43.5 			"/>
			<polygon class="st3" points="134,61.6 106,83.4 106,66.8 134,45 			"/>
			<rect x="54.4" y="90.4" class="st3" width="20.4" height="17"/>
		</g>
	</g>
</g>
<g id="Layer_2">
</g>
</svg>
