<?xml version="1.0" encoding="utf-8"?>
<!-- Generator: Adobe Illustrator 20.1.0, SVG Export Plug-In . SVG Version: 6.00 Build 0)  -->
<svg version="1.1" xmlns="http://www.w3.org/2000/svg" xmlns:xlink="http://www.w3.org/1999/xlink" x="0px" y="0px"
	 viewBox="0 0 155.9 155.9" style="enable-background:new 0 0 155.9 155.9;" xml:space="preserve">
<style type="text/css">
	.st0{fill-rule:evenodd;clip-rule:evenodd;fill:#58646D;}
	.st1{fill-rule:evenodd;clip-rule:evenodd;fill:#855600;}
</style>
<g id="Layer_1">
	<path class="st0" d="M149,20.2c0-7.3-5.9-13.1-13.1-13.1H20.2C13,7.1,7.1,13,7.1,20.2v115.6c0,7.3,5.9,13.1,13.1,13.1h115.6
		c7.3,0,13.1-5.9,13.1-13.1V20.2z"/>
	<g>
		<line class="st1" x1="108.9" y1="102.4" x2="110.1" y2="102.4"/>
		<polygon class="st1" points="79,112.5 77.3,111.4 107.8,93.2 109.6,94.2 		"/>
		<polygon class="st1" points="74.3,109.6 72.6,108.6 103.1,90.4 104.8,91.4 		"/>
		<polygon class="st1" points="74.2,109.6 72.5,108.6 103.1,90.4 104.8,91.4 		"/>
		<polygon class="st1" points="69.5,106.8 67.8,105.8 98.3,87.5 100.1,88.6 		"/>
		<polygon class="st1" points="64.8,104 63.1,102.9 93.6,84.7 95.3,85.7 		"/>
		<polygon class="st1" points="60.1,101.2 58.4,100.2 88.9,81.9 90.7,83 		"/>
		<polygon class="st1" points="55.4,98.4 53.7,97.4 84.3,79.1 86,80.2 		"/>
		<polygon class="st1" points="50.6,95.5 48.9,94.5 79.5,76.3 81.2,77.3 		"/>
	</g>
	<g>
		<line class="st1" x1="122.9" y1="58.9" x2="122.9" y2="58.2"/>
		<polygon class="st1" points="139.3,76.4 137.7,77.4 107.8,59.5 109.5,58.5 		"/>
		<polygon class="st1" points="134.7,79.2 133,80.2 103.2,62.3 104.9,61.3 		"/>
		<polygon class="st1" points="134.7,79.2 133,80.2 103.2,62.3 104.9,61.3 		"/>
		<polygon class="st1" points="130.1,82 128.4,83 98.6,65.1 100.3,64.1 		"/>
		<polygon class="st1" points="125.4,84.7 123.8,85.7 94,67.8 95.6,66.8 		"/>
		<polygon class="st1" points="120.9,87.4 119.2,88.5 89.4,70.6 91.1,69.6 		"/>
		<polygon class="st1" points="116.3,90.2 114.7,91.2 84.8,73.3 86.5,72.3 		"/>
		<polygon class="st1" points="111.6,93 110,94 80.2,76.1 81.8,75.1 		"/>
	</g>
	<g>
		<polygon class="st1" points="139.4,77.9 137.7,78.9 137.7,78 139.4,77 		"/>
		<polygon class="st1" points="134.7,80.7 133.1,81.7 133.1,80.8 134.8,79.8 		"/>
		<polygon class="st1" points="134.7,80.7 133,81.7 133,80.8 134.7,79.8 		"/>
		<polygon class="st1" points="130.1,83.5 128.4,84.5 128.4,83.6 130.1,82.6 		"/>
		<polygon class="st1" points="125.5,86.2 123.8,87.2 123.8,86.3 125.5,85.3 		"/>
		<polygon class="st1" points="120.9,89 119.2,90 119.2,89.1 120.9,88.1 		"/>
		<polygon class="st1" points="116.4,91.7 114.7,92.7 114.7,91.8 116.4,90.8 		"/>
		<polygon class="st1" points="111.7,94.5 110,95.5 110,94.6 111.7,93.6 		"/>
	</g>
	<g>
		<line class="st1" x1="61.7" y1="57.5" x2="61.7" y2="56.8"/>
		<polygon class="st1" points="79,75.7 77.3,76.8 45.8,58.1 47.5,57.1 		"/>
		<polygon class="st1" points="74.2,78.6 72.4,79.6 40.9,61 42.7,60 		"/>
		<polygon class="st1" points="74.1,78.6 72.3,79.7 40.8,61 42.6,60 		"/>
		<polygon class="st1" points="69.2,81.5 67.5,82.6 36,63.9 37.7,62.9 		"/>
		<polygon class="st1" points="64.4,84.4 62.6,85.4 31.1,66.8 32.9,65.8 		"/>
		<polygon class="st1" points="59.5,87.2 57.8,88.3 26.3,69.7 28.1,68.6 		"/>
		<polygon class="st1" points="54.7,90.1 53,91.1 21.5,72.5 23.2,71.4 		"/>
		<polygon class="st1" points="49.8,93 48,94.1 16.5,75.4 18.3,74.4 		"/>
		<polygon class="st1" points="47.7,94.7 47.7,95.7 16.2,77.1 16.2,76.1 		"/>
	</g>
	<polygon class="st1" points="109.5,95.8 79.1,113.9 79.1,113 109.5,94.9 	"/>
</g>
<g id="Layer_2">
</g>
</svg>
