<?xml version="1.0" encoding="utf-8"?>
<!-- Generator: Adobe Illustrator 20.1.0, SVG Export Plug-In . SVG Version: 6.00 Build 0)  -->
<svg version="1.1" xmlns="http://www.w3.org/2000/svg" xmlns:xlink="http://www.w3.org/1999/xlink" x="0px" y="0px"
	 viewBox="0 0 155.9 155.9" style="enable-background:new 0 0 155.9 155.9;" xml:space="preserve">
<style type="text/css">
	.st0{fill-rule:evenodd;clip-rule:evenodd;fill:#58646D;}
	.st1{fill-rule:evenodd;clip-rule:evenodd;fill:#B1E0F9;}
	.st2{fill-rule:evenodd;clip-rule:evenodd;fill:#C7C8C7;}
	.st3{fill-rule:evenodd;clip-rule:evenodd;fill:#C7C8C8;}
</style>
<g id="Layer_1">
	<g>
		<path class="st0" d="M149,20.3c0-7.3-5.9-13.1-13.1-13.1H20.2C13,7.1,7.1,13,7.1,20.3v115.6c0,7.3,5.9,13.1,13.1,13.1h115.6
			c7.3,0,13.1-5.9,13.1-13.1V20.3z"/>
		<rect x="62" y="79.3" class="st1" width="31.6" height="43"/>
		<rect x="28.9" y="79.3" class="st2" width="31.6" height="43"/>
		<rect x="95" y="79.3" class="st3" width="31.6" height="43"/>
		<rect x="62" y="34.5" class="st1" width="31.6" height="43"/>
		<rect x="28.9" y="34.5" class="st3" width="31.6" height="43"/>
		<rect x="95" y="34.5" class="st3" width="31.6" height="43"/>
		<rect x="89.8" y="34.5" class="st3" width="3.8" height="43"/>
		<rect x="62" y="34.5" class="st3" width="3.8" height="43"/>
		<rect x="89.8" y="79.3" class="st3" width="3.8" height="43"/>
		<rect x="62" y="79.3" class="st3" width="3.8" height="43"/>
		<rect x="65.9" y="79.3" class="st3" width="24" height="2.1"/>
		<rect x="65.9" y="75.4" class="st3" width="24" height="2.1"/>
	</g>
</g>
<g id="Layer_2">
</g>
</svg>
