<?xml version="1.0" encoding="utf-8"?>
<!-- Generator: Adobe Illustrator 20.1.0, SVG Export Plug-In . SVG Version: 6.00 Build 0)  -->
<svg version="1.1" xmlns="http://www.w3.org/2000/svg" xmlns:xlink="http://www.w3.org/1999/xlink" x="0px" y="0px"
	 viewBox="0 0 155.9 155.9" style="enable-background:new 0 0 155.9 155.9;" xml:space="preserve">
<style type="text/css">
	.st0{fill-rule:evenodd;clip-rule:evenodd;fill:#58646D;}
	.st1{fill-rule:evenodd;clip-rule:evenodd;fill:#FFFFFF;}
	.st2{fill-rule:evenodd;clip-rule:evenodd;fill:#006531;}
</style>
<g id="Layer_1">
	<path class="st0" d="M148.2,19.8c0-7.2-5.8-13-13-13H20.7c-7.2,0-13,5.8-13,13v114.5c0,7.2,5.8,13,13,13h114.5c7.2,0,13-5.8,13-13
		V19.8z"/>
	<g>
		<path class="st1" d="M104.3,98.8c-1-1.2-2-2.5-3-3.7c-0.3-0.4-0.5-0.9-1.1-1.1l0,0c-0.1-0.4-0.4-0.7-0.7-1
			c-0.2-0.2-0.3-0.6-0.6-0.7c-0.2-0.3-0.4-0.7-0.7-1l0,0c-0.3-0.4-0.5-0.8-0.9-1.2c-0.3-0.4-0.5-0.8-1-1l0,0h0
			c-0.4-0.3-0.5-0.9-0.9-1.1c-0.3-0.4-0.5-0.9-0.9-1.2c-0.2-0.3-0.4-0.7-0.8-0.9c-0.7-1.1-1.4-2.1-2.3-3c-0.1-0.1-0.1-0.3-0.2-0.4
			c-0.7-0.2-1.1,0.1-1.5,0.6l0,0c-0.4,0-0.7,0-1.1,0c-0.1-0.1-0.2-0.3-0.5-0.1c0.6,0.8,1.2,1.7,2,2.4c0.6,0.7,1.1,1.4,1.7,2.1
			c2,2.5,4,5,5.9,7.5c0.6,0.7,1.2,1.5,1.7,2.2c0.9,1.1,1.7,2.3,2.7,3.3c0.9,0.8,1.5,0.1,2.1-0.5c0.3-0.3,0.4-0.6,0.2-1
			C104.4,99,104.4,98.9,104.3,98.8z"/>
		<path class="st1" d="M20.7,105.3c1.3-0.9,2.5-1.9,3.8-2.8c0.4-0.3,0.8-0.8,1.4-0.7c0,0,0,0,0,0c0.2-0.4,0.6-0.6,1-0.7
			c0.2-0.2,0.4-0.5,0.8-0.5c0.3-0.3,0.5-0.6,0.9-0.8h0c0.4-0.3,0.7-0.7,1.2-0.9c0.4-0.3,0.7-0.6,1.2-0.8v0l0,0
			c0.5-0.1,0.7-0.8,1.2-0.8c0.4-0.3,0.7-0.8,1.2-0.9c0.3-0.3,0.5-0.6,1-0.7c0.9-0.9,1.9-1.6,3-2.3c0.1-0.1,0.2-0.2,0.3-0.3
			c0.7,0,1,0.4,1.3,0.9l0,0c0.4,0.1,0.7,0.2,1.1,0.3c0.2-0.1,0.3-0.3,0.5,0c-0.8,0.7-1.6,1.3-2.5,1.8c-0.7,0.5-1.4,1.1-2.2,1.6
			c-2.6,1.9-5.1,3.8-7.7,5.7c-0.8,0.6-1.5,1.1-2.3,1.7c-1.1,0.9-2.2,1.8-3.4,2.5c-1.1,0.5-1.5-0.3-1.9-1c-0.2-0.4-0.2-0.7,0.1-1
			C20.7,105.5,20.7,105.4,20.7,105.3z"/>
		<path class="st1" d="M131.6,79.6c-0.6-1-1.6-1.8-2.4-2.6l0,0c0-0.1-0.1-0.2-0.1-0.2c-1.6-1.9-3.6-3.4-5.3-5.2c0,0-0.1,0-0.2,0
			c-0.1-0.2-0.3-0.4-0.4-0.6c0-0.2,0-0.3,0-0.5c-0.3,0.2-0.5,0.4-0.8,0.6c-0.5,0-1,0-1.5,0c0.8,1,1.7,1.9,2.7,2.8
			c1.8,1.9,3.6,3.8,5.4,5.6c0.5,0.7,1.1,1.3,1.7,1.9c0.7,0.8,1.4,1.8,2.3,2.4c1.2,0.1,1.7-0.3,1.5-1.3
			C133.6,81.4,132.6,80.5,131.6,79.6z"/>
		<path class="st2" d="M136.9,63c-0.6-0.2-0.8-0.9-1.4-1.1c0.3-0.2,0.6-0.3,0.9-0.5c-0.2-0.2-0.5-0.4-0.7-0.5c0.4-0.5,0-0.4-0.3-0.4
			c0-0.1,0-0.1-0.1-0.2c-1.3-0.2-2.6-0.5-4-0.7c-3.5-0.6-6.9-1.5-10.5-2l0,0c-0.4-0.1-0.7-0.3-1.1-0.3c-2.2-0.4-4.3-0.8-6.5-1.4
			c-0.5-0.1-1-0.1-1.5,0c-0.6,0.8-1.6,0.8-2.5,0.8c-1.1,0-2.1-0.5-3.2-0.6c-0.1,0-0.3,0-0.4,0.1c-0.3,0.1-0.5,0.1-0.8,0.2
			c-5.1,1.1-10.2,2.3-15.3,3.4c-0.6,0-1.2,0.1-1.7,0.4c-0.9,0.2-1.9,0.4-2.8,0.6h0l0,0c-0.8,0.1-1.6,0.3-2.4,0.5
			c-0.3,0.1-0.6,0.1-0.9,0.2c-1.3,0.1-2.5,0.4-3.8,0.7c-0.2,0.2,0,0.4,0.1,0.5c0.5,0.6,0.1,0.9-0.4,1.1c-0.1,0.2-0.1,0.4,0,0.5
			c-0.3,0.1-0.7,0.2-0.9,0.5c-0.6,0.7-1.2,0.4-1.9,0.2c-0.6-0.8-1.2-0.3-1.9-0.1h0c-0.9,0.3-1.5-0.2-2.1-0.7c-0.6-0.4-1.1,0-1.7,0.1
			l0,0l0,0c-1.6,0.4-3.2,0.8-4.8,1.3c-8.4,2.2-16.8,4.4-25.2,6.6c-1.8,0.5-3.7,0.8-5.5,1.5c-0.2,0.1-0.5,0.1-0.7,0.2
			c-1.2,0.2-2.4,0.6-3.6,0.9l0,0c-1.7,0.5-3.6,0.7-5.3,1.3c-0.2,0-0.3,0-0.5,0c-0.2,1-0.7,1.7-1.6,2.5c-0.8,0.7-1.4,1.3-2.5,1.4l0,0
			c-0.1,0-0.2,0-0.2,0c0,0,0,0,0,0c-0.1-0.2-0.3-0.4-0.4-0.6c-0.6-0.3-1,0.1-1.5,0.2c-0.2,0-0.4,0-0.6,0.2c-0.1,0-0.1,0-0.2,0
			c-0.1,0-0.1,0-0.2,0c-0.5,0.6-1.5,0.5-2.1,0.9c0.1,0,0.2,0,0.2,0c-0.2,0-0.4,0-0.5,0.3c-0.3,0.5,0,0.9,0.2,1.3
			c0.1,0.1,0.2,0.2,0.3,0.4c0.8,0.8,1.7,1.4,2.6,2.1c0-0.5,0.3-0.5,0.7-0.3c0.6,0.3,1.2,0.6,1.8,1c1.7,1.2,3.1,2.7,5.1,3.6
			c0.8,0.4,1.6,1.2,2.4,1.8c0.5,0.3,0.9,0.7,1.5,0.9c0,0,0,0,0,0c0,0,0,0,0,0c0,0,0,0,0,0c0.4,0.5,0.9,1,1.5,1.3v0
			c1.4,1.1,2.8,2.2,4.3,3c0-0.1,0-0.3,0-0.4l0.1,0h0.1c0.8-0.3,1.5-0.9,2.4-0.9c0.8,0.1,1.6,0.1,2.4,0c0.5-0.1,1-0.3,1.5,0
			c2-0.5,3.9-1.5,6-1.7c0.1,0,0.3-0.1,0.4-0.2c0.1,0,0.2-0.1,0.4-0.1c0,0,0,0,0,0c0.5,0.2,0.9,0.1,1.3-0.2c0.1,0,0.2,0,0.3,0.1
			c0.1,0,0.2,0,0.3,0c0,0,0,0,0.1,0c0,0,0.1,0.1,0.2,0.1c0,0,0,0,0.1,0c0,0.8,0.7,1.5,1.5,1.7c-0.3,0.3-0.7,0.5-0.6,1
			c0.5,0,0.9-0.1,1.3-0.3c1.7-0.7,3.4-1.4,5.2-2.1c3.5-1.4,7.1-2.9,10.6-4.3c-0.1-0.1-0.3-0.1-0.4-0.2c4.2-1.8,8.4-3.4,12.6-5
			c2.4-1,4.8-1.7,7.1-2.8c0,0,0,0,0,0c0.7-0.3,1.5-0.5,2.2-0.8c0.2,0.1,0.4,0.1,0.6,0.2c0.2,0.3,0.5,0.2,0.7,0.1
			c0.4-0.1,0.8-0.2,1.2-0.3c0.1,0,0.2-0.1,0.3-0.1c0.3-0.3,0.9-0.1,0.9-0.8c0,0,0,0,0,0c2.6-0.9,5.2-1.9,7.8-2.8
			c0.4-0.4,1-0.5,1.1-1.1c0,0,0,0,0,0c-0.1-0.3-0.3-0.6-0.4-0.9c-0.1-0.1-0.2-0.2-0.2-0.4c0.1-0.1,0.1-0.2,0.1-0.3
			c0-0.1,0-0.2,0-0.3c0.3,0.1,0.6,0,0.8-0.2c0.6-0.3,1.1-0.5,1.7-0.6c0.4-0.2,0.6-0.7,1-0.9c0.1-0.1,0.2-0.1,0.4-0.2
			c0.3,0,0.5-0.1,0.8-0.2c0.2,0,0.4,0,0.6,0.1c0.4-0.1,0.9-0.1,1.3-0.4c0,0,0.1-0.1,0.1-0.1c0,0,0,0,0,0c0.3,0.5,0.5,0.9,0.8,1.4
			c1.1,0.1,2.1-0.2,3-0.6h0c0.4-0.2,0.9-0.3,1.3-0.5c0.1,0,0.1,0,0.2-0.1l0,0c0.7-0.3,1.6-0.3,2.3-0.7l0,0c1.8-0.6,3.7-1.1,5.4-1.9
			c0.2,0,0.4-0.1,0.5-0.1c4.4-1.4,8.8-2.8,13.2-4.2l0,0c0.4-0.1,0.8-0.1,1.1,0.2c0.3,0,0.5-0.2,0.8-0.3
			C137.2,63.2,137,63.1,136.9,63z M123.3,65.9C123.3,65.9,123.3,65.9,123.3,65.9L123.3,65.9C123.3,65.9,123.3,65.9,123.3,65.9
			C123.3,65.9,123.3,65.9,123.3,65.9z M72.7,64.9c0.1,0,0.2-0.1,0.3-0.1C72.9,64.9,72.8,64.9,72.7,64.9z"/>
		<path class="st1" d="M53.5,119.5c-1-1.2-2-2.5-3-3.7c-0.3-0.4-0.5-0.9-1.1-1.1l0,0c-0.1-0.4-0.4-0.7-0.7-1
			c-0.2-0.2-0.3-0.6-0.6-0.7c-0.2-0.3-0.4-0.7-0.7-1v0c-0.3-0.4-0.5-0.8-0.9-1.2c-0.3-0.4-0.5-0.8-1-1l0,0h0
			c-0.4-0.3-0.5-0.9-0.9-1.1c-0.3-0.4-0.5-0.9-0.9-1.2c-0.2-0.3-0.4-0.7-0.8-0.9c-0.7-1.1-1.4-2.1-2.3-3c-0.1-0.1-0.1-0.3-0.2-0.4
			c-0.7-0.2-1.1,0.1-1.5,0.6c0,0,0,0,0,0c-0.4,0-0.7,0-1.1,0c-0.1-0.1-0.2-0.3-0.5-0.1c0.6,0.8,1.2,1.7,2,2.4
			c0.6,0.7,1.1,1.4,1.7,2.1c2,2.5,4,5,5.9,7.5c0.6,0.7,1.2,1.5,1.7,2.2c0.9,1.1,1.7,2.3,2.7,3.3c0.9,0.8,1.5,0.1,2.1-0.5
			c0.3-0.3,0.4-0.6,0.2-1C53.5,119.7,53.5,119.6,53.5,119.5z"/>
	</g>
</g>
<g id="Layer_2">
</g>
</svg>
