<?xml version="1.0" encoding="utf-8"?>
<!-- Generator: Adobe Illustrator 20.1.0, SVG Export Plug-In . SVG Version: 6.00 Build 0)  -->
<svg version="1.1" xmlns="http://www.w3.org/2000/svg" xmlns:xlink="http://www.w3.org/1999/xlink" x="0px" y="0px"
	 viewBox="0 0 155.9 155.9" style="enable-background:new 0 0 155.9 155.9;" xml:space="preserve">
<style type="text/css">
	.st0{fill-rule:evenodd;clip-rule:evenodd;fill:#58646D;}
	.st1{fill-rule:evenodd;clip-rule:evenodd;fill:#C99D65;}
	.st2{fill-rule:evenodd;clip-rule:evenodd;fill:#935E35;}
	.st3{fill-rule:evenodd;clip-rule:evenodd;fill:#B17E49;}
	.st4{fill-rule:evenodd;clip-rule:evenodd;fill:#FFFFFF;}
</style>
<g id="Layer_1">
	<path class="st0" d="M147.7,20.1c0-7.2-5.8-13-13-13H20.2c-7.2,0-13,5.8-13,13v114.5c0,7.2,5.8,13,13,13h114.5c7.2,0,13-5.8,13-13
		V20.1z"/>
	<polygon class="st1" points="38.8,96.7 35.5,96.7 93.5,52.9 96.8,52.9 	"/>
	<polygon class="st1" points="44.7,96.7 41.4,96.7 98,52.9 101.3,52.9 	"/>
	<polygon class="st1" points="51.2,96.7 47.9,96.7 102.4,52.9 105.7,52.9 	"/>
	<polygon class="st1" points="57.1,96.7 53.8,96.7 107,52.9 110.3,52.9 	"/>
	<polygon class="st1" points="63.1,96.7 59.4,96.7 111.2,52.9 114.9,52.9 	"/>
	<g>
		<rect x="35.5" y="97.5" class="st2" width="3.3" height="0.8"/>
		<rect x="41.4" y="97.5" class="st2" width="3.3" height="0.8"/>
		<rect x="47.9" y="97.5" class="st2" width="3.3" height="0.8"/>
		<rect x="53.8" y="97.5" class="st2" width="3.3" height="0.8"/>
		<rect x="59.5" y="97.5" class="st2" width="3.3" height="0.8"/>
		<rect x="70.6" y="92" class="st3" width="0.7" height="0.4"/>
		<polygon class="st1" points="72.9,90.6 71.3,92 71.3,92.4 72.9,91 		"/>
		<polygon class="st2" points="114.9,53.9 63,97.5 63,98.3 114.9,54.7 		"/>
		<rect x="89.9" y="75.7" class="st3" width="0.7" height="0.4"/>
		<polygon class="st1" points="92.3,74.3 90.7,75.7 90.7,76.1 92.3,74.7 		"/>
		<rect x="107.8" y="60.7" class="st3" width="0.7" height="0.4"/>
		<polygon class="st1" points="110.1,59.3 108.5,60.7 108.5,61.1 110.1,59.7 		"/>
	</g>
	<g>
		<rect x="35.5" y="100.3" class="st2" width="3.3" height="0.8"/>
		<rect x="41.4" y="100.3" class="st2" width="3.3" height="0.8"/>
		<rect x="47.9" y="100.3" class="st2" width="3.3" height="0.8"/>
		<rect x="53.8" y="100.3" class="st2" width="3.3" height="0.8"/>
		<rect x="59.5" y="100.3" class="st2" width="3.3" height="0.8"/>
		<rect x="70.6" y="94.8" class="st3" width="0.7" height="0.4"/>
		<polygon class="st1" points="72.9,93.3 71.3,94.8 71.3,95.2 72.9,93.7 		"/>
		<polygon class="st2" points="114.9,56.6 63,100.3 63,101.1 114.9,57.4 		"/>
		<rect x="89.9" y="78.4" class="st3" width="0.7" height="0.4"/>
		<polygon class="st1" points="92.3,77 90.7,78.4 90.7,78.9 92.3,77.4 		"/>
		<rect x="107.8" y="63.5" class="st3" width="0.7" height="0.4"/>
		<polygon class="st1" points="110.1,62 108.5,63.5 108.5,63.9 110.1,62.4 		"/>
	</g>
	<g>
		<rect x="35.5" y="103" class="st2" width="3.3" height="0.8"/>
		<rect x="41.4" y="103" class="st2" width="3.3" height="0.8"/>
		<rect x="47.9" y="103" class="st2" width="3.3" height="0.8"/>
		<rect x="53.8" y="103" class="st2" width="3.3" height="0.8"/>
		<rect x="59.5" y="103" class="st2" width="3.3" height="0.8"/>
		<rect x="70.6" y="97.5" class="st3" width="0.7" height="0.4"/>
		<polygon class="st1" points="72.9,96.1 71.3,97.5 71.3,97.9 72.9,96.5 		"/>
		<polygon class="st2" points="114.9,59.3 63,103 63,103.8 114.9,60.1 		"/>
		<rect x="89.9" y="81.2" class="st3" width="0.7" height="0.4"/>
		<polygon class="st1" points="92.3,79.8 90.7,81.2 90.7,81.6 92.3,80.2 		"/>
		<rect x="107.8" y="66.2" class="st3" width="0.7" height="0.4"/>
		<polygon class="st1" points="110.1,64.8 108.5,66.2 108.5,66.6 110.1,65.2 		"/>
	</g>
	<g>
		<path class="st4" d="M57.5,95.7c0,3.7-3.4,6.7-7.6,6.7h-6.3c-4.2,0-7.6-3-7.6-6.7V74.2c0-3.7,3.4-6.7,7.6-6.7h6.3
			c4.2,0,7.6,3,7.6,6.7V95.7z"/>
		<path class="st4" d="M57.5,128.8c0,3-1.7,5.5-3.7,5.5l0,0c-2.1,0-3.7-2.4-3.7-5.5V97.9c0-3,1.7-5.5,3.7-5.5l0,0
			c2.1,0,3.7,2.4,3.7,5.5V128.8z"/>
		<path class="st4" d="M70.3,86.1c2,2.2,2.5,5.2,0.9,6.5l0,0c-1.5,1.4-4.4,0.7-6.4-1.5L50.4,75.3c-2-2.2-2.5-5.2-0.9-6.5l0,0
			c1.5-1.4,4.4-0.7,6.4,1.5L70.3,86.1z"/>
		<path class="st4" d="M43.5,129.4c0,3-1.7,5.5-3.7,5.5l0,0c-2.1,0-3.7-2.4-3.7-5.5V98.5c0-3,1.7-5.5,3.7-5.5l0,0
			c2.1,0,3.7,2.4,3.7,5.5V129.4z"/>
		<circle class="st4" cx="46.4" cy="57.2" r="8.1"/>
	</g>
	<g>
		<path class="st4" d="M96.6,51V39.5c0-3.1,2.9-5.6,6.4-5.6h5.3c3.5,0,6.4,2.5,6.4,5.6V51L96.6,51z"/>
		<path class="st4" d="M114.7,88c0,2.5-1.4,4.6-3.1,4.6l0,0c-1.7,0-3.1-2.1-3.1-4.6V68.5l6.3-5.2V88z"/>
		<path class="st4" d="M102.9,88.6c0,2.5-1.4,4.6-3.1,4.6l0,0c-1.7,0-3.1-2.1-3.1-4.6v-11l6.3-5.2V88.6z"/>
		<circle class="st4" cx="104.6" cy="26.1" r="6.8"/>
		<path class="st4" d="M103,55.3c-0.7,2.4,0,4.7,1.7,5.2l0,0c1.7,0.5,3.6-1,4.3-3.3l5-16.7c0.7-2.4,0-4.7-1.7-5.2l0,0
			c-1.7-0.5-3.6,1-4.3,3.3L103,55.3z"/>
		<g>
			<path class="st4" d="M101.3,35.8c-1.5-0.9-3.5-0.1-4.6,1.8l-7.4,13.3c-0.8,1.3-1.2,2.4-0.6,3.4l4.2-3.3h3.7l5.5-10.2
				C103.2,38.9,102.8,36.7,101.3,35.8z"/>
		</g>
	</g>
</g>
<g id="Layer_2">
</g>
</svg>
